<svg width="205" height="272" viewBox="0 0 205 272" fill="none" xmlns="http://www.w3.org/2000/svg">
<g clip-path="url(#clip0_424_544)">
<rect width="205" height="272" fill="#F2F4F8"/>
<ellipse cx="155.938" cy="162.028" rx="22.05" ry="22.0277" fill="#D7DAE0"/>
<path d="M-12.8365 155.924L-100 282.787V356.343H215V257.986C205.577 248.779 184.779 228.277 176.971 219.923C169.164 211.57 158.237 216.443 153.75 219.923L113.702 257.986C83.5257 227.671 20.8847 164.816 11.7308 155.924C2.57696 147.031 -8.4615 152.218 -12.8365 155.924Z" fill="#D7DAE0"/>
<rect x="20" y="20" width="165" height="31" rx="4" fill="#D7DAE0"/>
<rect x="20" y="63" width="144" height="10" rx="2" fill="#D7DAE0"/>
<rect x="20" y="81" width="165" height="10" rx="2" fill="#D7DAE0"/>
<rect x="20" y="99" width="83" height="10" rx="2" fill="#D7DAE0"/>
</g>
<defs>
<clipPath id="clip0_424_544">
<rect width="205" height="272" fill="white"/>
</clipPath>
</defs>
</svg>
