<svg width="32" height="36" viewBox="0 0 32 36" fill="none" xmlns="http://www.w3.org/2000/svg">
<mask id="mask0_59_303" style="mask-type:alpha" maskUnits="userSpaceOnUse" x="2" y="4" width="28" height="28">
<rect x="2" y="4" width="28" height="28" fill="#D9D9D9"/>
</mask>
<g mask="url(#mask0_59_303)">
<path d="M12.4123 20.3849L15.9998 16.7974L19.5873 20.3849L20.8347 19.1667L15.9998 14.3318L11.1649 19.1667L12.4123 20.3849ZM16.0018 29.0833C14.4688 29.0833 13.028 28.7924 11.6791 28.2106C10.3303 27.6289 9.15701 26.8393 8.15925 25.842C7.16148 24.8447 6.37158 23.6719 5.78955 22.3237C5.20752 20.9755 4.9165 19.5349 4.9165 18.002C4.9165 16.469 5.20739 15.0282 5.78917 13.6793C6.37095 12.3305 7.16049 11.1572 8.1578 10.1595C9.15512 9.16168 10.3279 8.37178 11.6761 7.78975C13.0244 7.20772 14.4649 6.9167 15.9979 6.9167C17.5308 6.9167 18.9717 7.20759 20.3205 7.78937C21.6693 8.37115 22.8426 9.16069 23.8404 10.158C24.8381 11.1553 25.628 12.3281 26.2101 13.6763C26.7921 15.0246 27.0831 16.4651 27.0831 17.9981C27.0831 19.531 26.7922 20.9718 26.2104 22.3207C25.6287 23.6695 24.8391 24.8428 23.8418 25.8406C22.8445 26.8383 21.6717 27.6282 20.3235 28.2103C18.9753 28.7923 17.5347 29.0833 16.0018 29.0833ZM15.9998 27.3333C18.6054 27.3333 20.8123 26.4292 22.6206 24.6208C24.429 22.8125 25.3331 20.6056 25.3331 18C25.3331 15.3945 24.429 13.1875 22.6206 11.3792C20.8123 9.57084 18.6054 8.66667 15.9998 8.66667C13.3943 8.66667 11.1873 9.57084 9.37897 11.3792C7.57064 13.1875 6.66647 15.3945 6.66647 18C6.66647 20.6056 7.57064 22.8125 9.37897 24.6208C11.1873 26.4292 13.3943 27.3333 15.9998 27.3333Z" fill="#303A4D"/>
</g>
</svg>
