<svg width="24" height="24" viewBox="0 0 24 24" fill="none" xmlns="http://www.w3.org/2000/svg">
<path fill-rule="evenodd" clip-rule="evenodd" d="M2.94582 4.61079L9.42957 11.0974C10.8437 12.5088 13.1553 12.51 14.5706 11.0974L21.0543 4.61079C21.1196 4.5455 21.1101 4.43797 21.0344 4.38514C20.3731 3.92393 19.5684 3.65051 18.7017 3.65051H5.29848C4.43171 3.65051 3.6271 3.92398 2.96579 4.38514C2.89004 4.43797 2.88053 4.5455 2.94582 4.61079ZM1.21313 7.73581C1.21313 7.05425 1.38212 6.41028 1.67978 5.84426C1.72632 5.75572 1.84431 5.73781 1.91504 5.80854L8.31671 12.2102C10.3439 14.2404 13.6551 14.2415 15.6835 12.2102L22.0852 5.80854C22.1559 5.73781 22.2739 5.75572 22.3204 5.84426C22.618 6.41028 22.7871 7.05429 22.7871 7.73581V16.2641C22.7871 18.5185 20.9533 20.3495 18.7017 20.3495H5.29848C3.04698 20.3495 1.21313 18.5185 1.21313 16.2641V7.73581Z" fill="#303A4D"/>
</svg>
