<svg width="12" height="13" viewBox="0 0 12 13" fill="none" xmlns="http://www.w3.org/2000/svg">
<g clip-path="url(#clip0_142_1643)">
<path d="M5.06215 3.03451C5.38431 2.16389 6.61569 2.16389 6.93785 3.03451L7.46097 4.44821C7.56226 4.72193 7.77807 4.93774 8.05179 5.03903L9.46549 5.56215C10.3361 5.88431 10.3361 7.11569 9.46549 7.43785L8.05179 7.96097C7.77807 8.06226 7.56226 8.27807 7.46097 8.55179L6.93785 9.96549C6.61569 10.8361 5.38431 10.8361 5.06215 9.96549L4.53903 8.55179C4.43774 8.27807 4.22193 8.06226 3.94821 7.96097L2.53451 7.43785C1.66389 7.11569 1.66389 5.88431 2.53451 5.56215L3.94821 5.03903C4.22193 4.93774 4.43774 4.72193 4.53903 4.44821L5.06215 3.03451Z" fill="#303A4D"/>
</g>
<defs>
<clipPath id="clip0_142_1643">
<rect width="12" height="12" fill="white" transform="translate(0 0.5)"/>
</clipPath>
</defs>
</svg>
