<svg width="20" height="20" viewBox="0 0 20 20" fill="none" xmlns="http://www.w3.org/2000/svg">
<path d="M9.99996 0C6.00601 0 2.75671 3.2493 2.75671 7.2432C2.75671 12.1998 9.23871 19.4763 9.51468 19.7836C9.7739 20.0723 10.2265 20.0718 10.4852 19.7836C10.7612 19.4763 17.2432 12.1998 17.2432 7.2432C17.2431 3.2493 13.9939 0 9.99996 0ZM9.99996 10.8875C7.9905 10.8875 6.35574 9.25266 6.35574 7.2432C6.35574 5.23375 7.99054 3.59898 9.99996 3.59898C12.0094 3.59898 13.6441 5.23379 13.6441 7.24324C13.6441 9.2527 12.0094 10.8875 9.99996 10.8875Z" fill="#303A4D"/>
</svg>
