<svg width="20" height="20" viewBox="0 0 20 20" fill="none" xmlns="http://www.w3.org/2000/svg">
<g clip-path="url(#clip0_59_178)">
<path d="M18.9456 14.8611C18.1153 14.0309 17.2872 13.2005 16.4569 12.3725C15.7985 11.6806 14.9347 11.6806 14.2428 12.3725C13.725 12.8903 13.2049 13.4081 12.6871 13.9282C12.5487 14.0666 12.4438 14.0666 12.272 13.9974C11.9595 13.7898 11.5801 13.6514 11.2676 13.4438C9.78109 12.5109 8.50217 11.2989 7.39508 9.91507C6.84155 9.22315 6.3572 8.49775 6.01123 7.66746C5.94206 7.49559 5.94206 7.3907 6.08044 7.25232C6.63397 6.76796 7.11832 6.25016 7.63613 5.79929C8.36376 5.07389 8.36376 4.24359 7.63613 3.51819C7.1875 3.06734 6.80583 2.6879 6.39292 2.27276C5.94206 1.82412 5.52691 1.40898 5.11177 0.993819C4.45555 0.335394 3.58956 0.335394 2.89986 0.993819C2.37982 1.51164 1.86201 2.02946 1.34194 2.54952C0.857615 3.03386 0.616543 3.62087 0.547339 4.27931C0.478161 5.35066 0.719206 6.38854 1.10087 7.3907C1.86201 9.49993 3.03824 11.2989 4.45555 12.993C6.3572 15.2763 8.67401 17.1088 11.3368 18.3899C12.5487 18.9435 13.7942 19.4278 15.1066 19.497C16.0753 19.5305 16.8721 19.2894 17.5283 18.5618C17.9769 18.0774 18.497 17.6288 18.9456 17.1445C19.6375 16.4168 19.6375 15.5531 18.9456 14.8611Z" fill="#303A4D"/>
</g>
<defs>
<clipPath id="clip0_59_178">
<rect width="20" height="20" fill="white"/>
</clipPath>
</defs>
</svg>
