<svg width="79" height="14" viewBox="0 0 79 14" fill="none" xmlns="http://www.w3.org/2000/svg">
<path d="M7.66675 0L9.64171 4.2817L14.3241 4.83688L10.8623 8.0383L11.7812 12.6631L7.66675 10.36L3.55225 12.6631L4.4712 8.0383L1.00935 4.83688L5.69179 4.2817L7.66675 0Z" fill="#303A4D"/>
<path d="M23.6667 0L25.6417 4.2817L30.3241 4.83688L26.8623 8.0383L27.7812 12.6631L23.6667 10.36L19.5523 12.6631L20.4712 8.0383L17.0094 4.83688L21.6918 4.2817L23.6667 0Z" fill="#303A4D"/>
<path d="M39.6667 0L41.6417 4.2817L46.3241 4.83688L42.8623 8.0383L43.7812 12.6631L39.6667 10.36L35.5523 12.6631L36.4712 8.0383L33.0094 4.83688L37.6918 4.2817L39.6667 0Z" fill="#303A4D"/>
<path d="M55.6667 0L57.6417 4.2817L62.3241 4.83688L58.8623 8.0383L59.7812 12.6631L55.6667 10.36L51.5523 12.6631L52.4712 8.0383L49.0094 4.83688L53.6918 4.2817L55.6667 0Z" fill="#303A4D"/>
<path d="M71.6667 0L73.6417 4.2817L78.3241 4.83688L74.8623 8.0383L75.7812 12.6631L71.6667 10.36L67.5523 12.6631L68.4712 8.0383L65.0094 4.83688L69.6918 4.2817L71.6667 0Z" fill="#303A4D"/>
</svg>
