<?xml version="1.0" encoding="UTF-8" standalone="no"?>
<!-- Created with Inkscape (http://www.inkscape.org/) -->

<svg
   width="1980"
   height="1080"
   viewBox="0 0 523.87499 285.75001"
   version="1.1"
   id="svg5"
   inkscape:version="1.1.1 (3bf5ae0d25, 2021-09-20)"
   sodipodi:docname="image_with_error.svg"
   xmlns:inkscape="http://www.inkscape.org/namespaces/inkscape"
   xmlns:sodipodi="http://sodipodi.sourceforge.net/DTD/sodipodi-0.dtd"
   xmlns="http://www.w3.org/2000/svg"
   xmlns:svg="http://www.w3.org/2000/svg">
  <sodipodi:namedview
     id="namedview7"
     pagecolor="#ffffff"
     bordercolor="#666666"
     borderopacity="1.0"
     inkscape:pageshadow="2"
     inkscape:pageopacity="0.0"
     inkscape:pagecheckerboard="0"
     inkscape:document-units="mm"
     showgrid="false"
     inkscape:zoom="0.24252235"
     inkscape:cx="181.42658"
     inkscape:cy="28.863319"
     inkscape:window-width="1920"
     inkscape:window-height="974"
     inkscape:window-x="2869"
     inkscape:window-y="-11"
     inkscape:window-maximized="1"
     inkscape:current-layer="g34883"
     units="px"
     width="1980px" />
  <defs
     id="defs2">
    <linearGradient
       id="grad1"
       x1="-8.3963293e-14"
       y1="-1.9241588e-14"
       x2="1462.3269"
       y2="-1.9241588e-14"
       gradientTransform="matrix(1.3540064,0,0,0.73854895,82.466628,-4.1233314)"
       gradientUnits="userSpaceOnUse">
      <stop
         offset="0%"
         style="stop-color:rgb(211,211,211);stop-opacity:1"
         id="stop24" />
      <stop
         offset="100%"
         style="stop-color:rgb(169,169,169);stop-opacity:1"
         id="stop26" />
    </linearGradient>
  </defs>
  <g
     inkscape:label="Layer 1"
     inkscape:groupmode="layer"
     id="layer1">
    <g
       id="g34883"
       transform="matrix(0.26458333,0,0,0.26458333,-239.18035,-31.40357)">
      <g
         id="g497"
         transform="translate(821.52211,122.81399)">
        <rect
           width="1980"
           height="1080"
           fill="url(#grad1)"
           id="rect31"
           x="82.466629"
           y="-4.1233315"
           style="fill:url(#grad1)" />
        <g
           id="g399"
           transform="matrix(5.1776466,0,0,5.1776466,47.611193,-289.64864)">
          <g
             aria-label="Error:Unable to Display Images"
             id="text33"
             style="font-size:24px;font-family:Arial;dominant-baseline:middle;text-anchor:middle">
            <path
               d="m 35.979279,142.77158 v -17.17969 h 12.421875 v 2.02734 H 38.252716 v 5.26172 h 9.503906 v 2.01563 h -9.503906 v 5.84765 h 10.546875 v 2.02735 z"
               style="font-size:24px;font-family:Arial;dominant-baseline:middle;text-anchor:middle"
               id="path32581" />
            <path
               d="m 51.647247,142.77158 v -12.44532 h 1.898438 v 1.88672 q 0.726562,-1.32422 1.335937,-1.74609 0.621094,-0.42188 1.359375,-0.42188 1.066407,0 2.167969,0.67969 l -0.726562,1.95703 q -0.773438,-0.45703 -1.546875,-0.45703 -0.691407,0 -1.242188,0.42188 -0.550781,0.41015 -0.785156,1.14843 -0.351563,1.125 -0.351563,2.46094 v 6.51563 z"
               style="font-size:24px;font-family:Arial;dominant-baseline:middle;text-anchor:middle"
               id="path32583" />
            <path
               d="m 59.639435,142.77158 v -12.44532 h 1.898437 v 1.88672 q 0.726563,-1.32422 1.335938,-1.74609 0.621094,-0.42188 1.359375,-0.42188 1.066406,0 2.167969,0.67969 l -0.726563,1.95703 q -0.773437,-0.45703 -1.546875,-0.45703 -0.691406,0 -1.242187,0.42188 -0.550782,0.41015 -0.785157,1.14843 -0.351562,1.125 -0.351562,2.46094 v 6.51563 z"
               style="font-size:24px;font-family:Arial;dominant-baseline:middle;text-anchor:middle"
               id="path32585" />
            <path
               d="m 66.869904,136.54892 q 0,-3.45703 1.921875,-5.12109 1.605468,-1.38282 3.914062,-1.38282 2.566406,0 4.195313,1.6875 1.628906,1.67578 1.628906,4.64063 0,2.40234 -0.726563,3.78515 -0.714843,1.3711 -2.097656,2.13282 -1.371094,0.76172 -3,0.76172 -2.613281,0 -4.230469,-1.67579 -1.605468,-1.67578 -1.605468,-4.82812 z m 2.167968,0 q 0,2.39062 1.042969,3.58594 1.042969,1.18359 2.625,1.18359 1.570313,0 2.613281,-1.19531 1.042969,-1.19531 1.042969,-3.64453 0,-2.3086 -1.054687,-3.49219 -1.042969,-1.19531 -2.601563,-1.19531 -1.582031,0 -2.625,1.18359 -1.042969,1.18359 -1.042969,3.57422 z"
               style="font-size:24px;font-family:Arial;dominant-baseline:middle;text-anchor:middle"
               id="path32587" />
            <path
               d="m 80.979279,142.77158 v -12.44532 h 1.898437 v 1.88672 q 0.726563,-1.32422 1.335938,-1.74609 0.621093,-0.42188 1.359375,-0.42188 1.066406,0 2.167968,0.67969 l -0.726562,1.95703 q -0.773438,-0.45703 -1.546875,-0.45703 -0.691406,0 -1.242188,0.42188 -0.550781,0.41015 -0.785156,1.14843 -0.351562,1.125 -0.351562,2.46094 v 6.51563 z"
               style="font-size:24px;font-family:Arial;dominant-baseline:middle;text-anchor:middle"
               id="path32589" />
            <path
               d="m 89.580841,132.72861 v -2.40235 h 2.402344 v 2.40235 z m 0,10.04297 v -2.40235 h 2.402344 v 2.40235 z"
               style="font-size:24px;font-family:Arial;dominant-baseline:middle;text-anchor:middle"
               id="path32591" />
            <path
               d="m 107.20584,125.59189 h 2.27344 v 9.92578 q 0,2.58984 -0.58594,4.11328 -0.58594,1.52344 -2.12109,2.48438 -1.52344,0.94921 -4.00782,0.94921 -2.41406,0 -3.949214,-0.83203 -1.535156,-0.83203 -2.191406,-2.40234 -0.65625,-1.58203 -0.65625,-4.3125 v -9.92578 h 2.273437 v 9.91406 q 0,2.23828 0.410157,3.30469 0.421875,1.05469 1.429686,1.6289 1.01953,0.57422 2.48438,0.57422 2.50781,0 3.57421,-1.13672 1.06641,-1.13671 1.06641,-4.37109 z"
               style="font-size:24px;font-family:Arial;dominant-baseline:middle;text-anchor:middle"
               id="path32593" />
            <path
               d="m 112.9949,142.77158 v -12.44532 h 1.89844 v 1.76953 q 1.37109,-2.05078 3.96094,-2.05078 1.125,0 2.0625,0.41016 0.94922,0.39844 1.41797,1.05469 0.46875,0.65625 0.65625,1.55859 0.11718,0.58594 0.11718,2.05078 v 7.65235 h -2.10937 v -7.57032 q 0,-1.28906 -0.24609,-1.92187 -0.2461,-0.64453 -0.87891,-1.01953 -0.62109,-0.38672 -1.46484,-0.38672 -1.34766,0 -2.33204,0.85547 -0.97265,0.85547 -0.97265,3.24609 v 6.79688 z"
               style="font-size:24px;font-family:Arial;dominant-baseline:middle;text-anchor:middle"
               id="path32595" />
            <path
               d="m 134.46365,141.23642 q -1.17187,0.99609 -2.26172,1.40625 -1.07812,0.41016 -2.32031,0.41016 -2.05078,0 -3.15234,-0.9961 -1.10156,-1.00781 -1.10156,-2.5664 0,-0.91407 0.41015,-1.66407 0.42188,-0.76172 1.08985,-1.21875 0.67968,-0.45703 1.52343,-0.6914 0.6211,-0.16407 1.875,-0.31641 2.55469,-0.30469 3.76172,-0.72656 0.0117,-0.4336 0.0117,-0.55078 0,-1.28907 -0.59766,-1.81641 -0.80859,-0.71484 -2.40234,-0.71484 -1.48828,0 -2.20312,0.52734 -0.70313,0.51563 -1.04297,1.83984 l -2.0625,-0.28125 q 0.28125,-1.32421 0.92578,-2.13281 0.64453,-0.82031 1.86328,-1.2539 1.21875,-0.44532 2.82422,-0.44532 1.59375,0 2.58984,0.375 0.9961,0.375 1.46485,0.94922 0.46875,0.5625 0.65625,1.42969 0.10546,0.53906 0.10546,1.94531 v 2.8125 q 0,2.94141 0.12891,3.72656 0.14063,0.77344 0.53906,1.48829 h -2.20312 q -0.32813,-0.65625 -0.42188,-1.53516 z m -0.17578,-4.71094 q -1.14844,0.46875 -3.44531,0.79688 -1.30078,0.1875 -1.83984,0.42187 -0.53907,0.23438 -0.83204,0.69141 -0.29296,0.44531 -0.29296,0.99609 0,0.84375 0.63281,1.40625 0.64453,0.5625 1.875,0.5625 1.21875,0 2.16797,-0.52734 0.94922,-0.53906 1.39453,-1.46485 0.33984,-0.71484 0.33984,-2.10937 z"
               style="font-size:24px;font-family:Arial;dominant-baseline:middle;text-anchor:middle"
               id="path32597" />
            <path
               d="m 141.63553,142.77158 h -1.95703 v -17.17969 h 2.10937 v 6.1289 q 1.33594,-1.67578 3.41016,-1.67578 1.14844,0 2.16797,0.46875 1.03125,0.45703 1.6875,1.30078 0.66797,0.83204 1.04297,2.01563 0.375,1.18359 0.375,2.53125 0,3.19922 -1.58204,4.94531 -1.58203,1.7461 -3.79687,1.7461 -2.20313,0 -3.45703,-1.83985 z m -0.0234,-6.31641 q 0,2.23828 0.60938,3.23437 0.99609,1.62891 2.69531,1.62891 1.38281,0 2.39062,-1.19531 1.00782,-1.20703 1.00782,-3.58594 0,-2.4375 -0.97266,-3.59766 -0.96094,-1.16015 -2.33203,-1.16015 -1.38281,0 -2.39063,1.20703 -1.00781,1.19531 -1.00781,3.46875 z"
               style="font-size:24px;font-family:Arial;dominant-baseline:middle;text-anchor:middle"
               id="path32599" />
            <path
               d="m 152.991,142.77158 v -17.17969 h 2.10937 v 17.17969 z"
               style="font-size:24px;font-family:Arial;dominant-baseline:middle;text-anchor:middle"
               id="path32601" />
            <path
               d="m 166.88943,138.76376 2.17969,0.26953 q -0.51562,1.91016 -1.91015,2.96485 -1.39454,1.05469 -3.5625,1.05469 -2.73047,0 -4.33594,-1.67579 -1.59375,-1.6875 -1.59375,-4.72265 0,-3.14063 1.61719,-4.875 1.61718,-1.73438 4.19531,-1.73438 2.49609,0 4.07812,1.69922 1.58203,1.69922 1.58203,4.78125 0,0.1875 -0.0117,0.5625 h -9.28125 q 0.11718,2.05078 1.16015,3.14063 1.04297,1.08984 2.60156,1.08984 1.16016,0 1.98047,-0.60937 0.82032,-0.60938 1.30078,-1.94532 z m -6.92578,-3.41015 h 6.94922 q -0.14062,-1.57032 -0.79687,-2.35547 -1.00782,-1.21875 -2.61328,-1.21875 -1.45313,0 -2.44922,0.97265 -0.98438,0.97266 -1.08985,2.60157 z"
               style="font-size:24px;font-family:Arial;dominant-baseline:middle;text-anchor:middle"
               id="path32603" />
            <path
               d="m 182.991,140.88486 0.30468,1.86328 q -0.89062,0.1875 -1.59375,0.1875 -1.14843,0 -1.78125,-0.36328 -0.63281,-0.36328 -0.89062,-0.94922 -0.25781,-0.59766 -0.25781,-2.4961 v -7.16015 h -1.54688 v -1.64063 h 1.54688 v -3.08203 l 2.09765,-1.26562 v 4.34765 h 2.1211 v 1.64063 h -2.1211 v 7.27734 q 0,0.90235 0.10547,1.16016 0.11719,0.25781 0.36328,0.41015 0.25782,0.15235 0.72657,0.15235 0.35156,0 0.92578,-0.082 z"
               style="font-size:24px;font-family:Arial;dominant-baseline:middle;text-anchor:middle"
               id="path32605" />
            <path
               d="m 184.26834,136.54892 q 0,-3.45703 1.92188,-5.12109 1.60546,-1.38282 3.91406,-1.38282 2.5664,0 4.19531,1.6875 1.62891,1.67578 1.62891,4.64063 0,2.40234 -0.72657,3.78515 -0.71484,1.3711 -2.09765,2.13282 -1.3711,0.76172 -3,0.76172 -2.61328,0 -4.23047,-1.67579 -1.60547,-1.67578 -1.60547,-4.82812 z m 2.16797,0 q 0,2.39062 1.04297,3.58594 1.04297,1.18359 2.625,1.18359 1.57031,0 2.61328,-1.19531 1.04297,-1.19531 1.04297,-3.64453 0,-2.3086 -1.05469,-3.49219 -1.04297,-1.19531 -2.60156,-1.19531 -1.58203,0 -2.625,1.18359 -1.04297,1.18359 -1.04297,3.57422 z"
               style="font-size:24px;font-family:Arial;dominant-baseline:middle;text-anchor:middle"
               id="path32607" />
            <path
               d="m 205.33865,142.77158 v -17.17969 h 5.91797 q 2.00391,0 3.0586,0.24609 1.47656,0.33985 2.51953,1.23047 1.35937,1.14844 2.02734,2.94141 0.67969,1.78125 0.67969,4.07812 0,1.95703 -0.45703,3.46875 -0.45703,1.51172 -1.17188,2.50781 -0.71484,0.98438 -1.57031,1.5586 -0.84375,0.5625 -2.05078,0.85547 -1.19531,0.29297 -2.75391,0.29297 z m 2.27344,-2.02735 h 3.66797 q 1.69922,0 2.66016,-0.3164 0.97265,-0.31641 1.54687,-0.89063 0.80859,-0.80859 1.25391,-2.16797 0.45703,-1.37109 0.45703,-3.3164 0,-2.69532 -0.89063,-4.13672 -0.8789,-1.45313 -2.14453,-1.94532 -0.91406,-0.35156 -2.9414,-0.35156 h -3.60938 z"
               style="font-size:24px;font-family:Arial;dominant-baseline:middle;text-anchor:middle"
               id="path32609" />
            <path
               d="m 222.41287,128.01767 v -2.42578 h 2.10938 v 2.42578 z m 0,14.75391 v -12.44532 h 2.10938 v 12.44532 z"
               style="font-size:24px;font-family:Arial;dominant-baseline:middle;text-anchor:middle"
               id="path32611" />
            <path
               d="m 226.88943,139.05673 2.08594,-0.32812 q 0.17578,1.2539 0.97266,1.92187 0.80859,0.66797 2.25,0.66797 1.45312,0 2.15625,-0.58594 0.70312,-0.59765 0.70312,-1.39453 0,-0.71484 -0.62109,-1.125 -0.43359,-0.28125 -2.15625,-0.71484 -2.32031,-0.58594 -3.22266,-1.00781 -0.89062,-0.4336 -1.35937,-1.1836 -0.45703,-0.76172 -0.45703,-1.67578 0,-0.83203 0.375,-1.53516 0.38672,-0.71484 1.04297,-1.18359 0.49218,-0.36328 1.33593,-0.60937 0.85547,-0.25782 1.82813,-0.25782 1.46484,0 2.5664,0.42188 1.11329,0.42187 1.64063,1.14844 0.52734,0.71484 0.72656,1.92187 l -2.0625,0.28125 q -0.14062,-0.96094 -0.82031,-1.5 -0.66797,-0.53906 -1.89844,-0.53906 -1.45312,0 -2.07422,0.48047 -0.62109,0.48047 -0.62109,1.125 0,0.41015 0.25781,0.73828 0.25781,0.33984 0.8086,0.5625 0.3164,0.11719 1.86328,0.53906 2.23828,0.59766 3.11718,0.98438 0.89063,0.375 1.39454,1.10156 0.5039,0.72656 0.5039,1.80469 0,1.05468 -0.62109,1.99218 -0.60938,0.92578 -1.76953,1.44141 -1.16016,0.50391 -2.625,0.50391 -2.42578,0 -3.70313,-1.00782 -1.26562,-1.00781 -1.61719,-2.98828 z"
               style="font-size:24px;font-family:Arial;dominant-baseline:middle;text-anchor:middle"
               id="path32613" />
            <path
               d="m 239.73318,147.54111 v -17.21485 h 1.92188 v 1.61719 q 0.67969,-0.94922 1.53516,-1.41797 0.85546,-0.48047 2.07421,-0.48047 1.59375,0 2.8125,0.82032 1.21875,0.82031 1.83985,2.32031 0.62109,1.48828 0.62109,3.26953 0,1.91016 -0.6914,3.44531 -0.67969,1.52344 -1.99219,2.34375 -1.30078,0.8086 -2.74219,0.8086 -1.05469,0 -1.89844,-0.44532 -0.83203,-0.44531 -1.37109,-1.125 v 6.0586 z m 1.91016,-10.92188 q 0,2.40235 0.97266,3.55078 0.97265,1.14844 2.35547,1.14844 1.40625,0 2.40234,-1.18359 1.00781,-1.19532 1.00781,-3.69141 0,-2.37891 -0.98437,-3.5625 -0.97266,-1.18359 -2.33203,-1.18359 -1.34766,0 -2.39063,1.26562 -1.03125,1.25391 -1.03125,3.65625 z"
               style="font-size:24px;font-family:Arial;dominant-baseline:middle;text-anchor:middle"
               id="path32615" />
            <path
               d="m 253.03397,142.77158 v -17.17969 h 2.10937 v 17.17969 z"
               style="font-size:24px;font-family:Arial;dominant-baseline:middle;text-anchor:middle"
               id="path32617" />
            <path
               d="m 266.53397,141.23642 q -1.17188,0.99609 -2.26172,1.40625 -1.07813,0.41016 -2.32032,0.41016 -2.05078,0 -3.15234,-0.9961 -1.10156,-1.00781 -1.10156,-2.5664 0,-0.91407 0.41015,-1.66407 0.42188,-0.76172 1.08985,-1.21875 0.67969,-0.45703 1.52344,-0.6914 0.62109,-0.16407 1.875,-0.31641 2.55468,-0.30469 3.76171,-0.72656 0.0117,-0.4336 0.0117,-0.55078 0,-1.28907 -0.59765,-1.81641 -0.8086,-0.71484 -2.40235,-0.71484 -1.48828,0 -2.20312,0.52734 -0.70313,0.51563 -1.04297,1.83984 l -2.0625,-0.28125 q 0.28125,-1.32421 0.92578,-2.13281 0.64453,-0.82031 1.86328,-1.2539 1.21875,-0.44532 2.82422,-0.44532 1.59375,0 2.58984,0.375 0.9961,0.375 1.46485,0.94922 0.46875,0.5625 0.65625,1.42969 0.10547,0.53906 0.10547,1.94531 v 2.8125 q 0,2.94141 0.1289,3.72656 0.14063,0.77344 0.53907,1.48829 h -2.20313 q -0.32812,-0.65625 -0.42187,-1.53516 z m -0.17579,-4.71094 q -1.14843,0.46875 -3.44531,0.79688 -1.30078,0.1875 -1.83984,0.42187 -0.53906,0.23438 -0.83203,0.69141 -0.29297,0.44531 -0.29297,0.99609 0,0.84375 0.63281,1.40625 0.64453,0.5625 1.875,0.5625 1.21875,0 2.16797,-0.52734 0.94922,-0.53906 1.39453,-1.46485 0.33984,-0.71484 0.33984,-2.10937 z"
               style="font-size:24px;font-family:Arial;dominant-baseline:middle;text-anchor:middle"
               id="path32619" />
            <path
               d="m 271.66678,147.56454 -0.23438,-1.98046 q 0.69141,0.1875 1.20703,0.1875 0.70313,0 1.125,-0.23438 0.42188,-0.23437 0.69141,-0.65625 0.19922,-0.31641 0.64453,-1.57031 0.0586,-0.17578 0.1875,-0.51563 l -4.72265,-12.46875 h 2.27343 l 2.58985,7.20703 q 0.5039,1.3711 0.90234,2.88282 0.36328,-1.45313 0.86719,-2.83594 l 2.66015,-7.25391 h 2.10938 l -4.73438,12.65625 q -0.76171,2.05078 -1.18359,2.82422 -0.5625,1.04297 -1.28906,1.52344 -0.72656,0.49219 -1.73438,0.49219 -0.60937,0 -1.35937,-0.25782 z"
               style="font-size:24px;font-family:Arial;dominant-baseline:middle;text-anchor:middle"
               id="path32621" />
            <path
               d="m 291.08475,142.77158 v -17.17969 h 2.27343 v 17.17969 z"
               style="font-size:24px;font-family:Arial;dominant-baseline:middle;text-anchor:middle"
               id="path32623" />
            <path
               d="m 297.09647,142.77158 v -12.44532 h 1.88671 v 1.7461 q 0.58594,-0.91407 1.5586,-1.46485 0.97265,-0.5625 2.21484,-0.5625 1.38281,0 2.26172,0.57422 0.89063,0.57422 1.25391,1.60547 1.47656,-2.17969 3.84375,-2.17969 1.85156,0 2.84765,1.03125 0.9961,1.01953 0.9961,3.15235 v 8.54297 h -2.09766 v -7.83985 q 0,-1.26562 -0.21094,-1.8164 -0.19922,-0.5625 -0.73828,-0.90235 -0.53906,-0.33984 -1.26562,-0.33984 -1.3125,0 -2.17969,0.8789 -0.86719,0.86719 -0.86719,2.78907 v 7.23047 H 304.491 v -8.08594 q 0,-1.40625 -0.51563,-2.10938 -0.51562,-0.70312 -1.6875,-0.70312 -0.89062,0 -1.65234,0.46875 -0.75,0.46875 -1.08985,1.37109 -0.33984,0.90235 -0.33984,2.60156 v 6.45704 z"
               style="font-size:24px;font-family:Arial;dominant-baseline:middle;text-anchor:middle"
               id="path32625" />
            <path
               d="m 325.20975,141.23642 q -1.17188,0.99609 -2.26172,1.40625 -1.07813,0.41016 -2.32031,0.41016 -2.05079,0 -3.15235,-0.9961 -1.10156,-1.00781 -1.10156,-2.5664 0,-0.91407 0.41016,-1.66407 0.42187,-0.76172 1.08984,-1.21875 0.67969,-0.45703 1.52344,-0.6914 0.62109,-0.16407 1.875,-0.31641 2.55468,-0.30469 3.76172,-0.72656 0.0117,-0.4336 0.0117,-0.55078 0,-1.28907 -0.59765,-1.81641 -0.8086,-0.71484 -2.40235,-0.71484 -1.48828,0 -2.20312,0.52734 -0.70313,0.51563 -1.04297,1.83984 l -2.0625,-0.28125 q 0.28125,-1.32421 0.92578,-2.13281 0.64453,-0.82031 1.86328,-1.2539 1.21875,-0.44532 2.82422,-0.44532 1.59375,0 2.58985,0.375 0.99609,0.375 1.46484,0.94922 0.46875,0.5625 0.65625,1.42969 0.10547,0.53906 0.10547,1.94531 v 2.8125 q 0,2.94141 0.1289,3.72656 0.14063,0.77344 0.53907,1.48829 h -2.20313 q -0.32812,-0.65625 -0.42187,-1.53516 z m -0.17578,-4.71094 q -1.14844,0.46875 -3.44532,0.79688 -1.30078,0.1875 -1.83984,0.42187 -0.53906,0.23438 -0.83203,0.69141 -0.29297,0.44531 -0.29297,0.99609 0,0.84375 0.63281,1.40625 0.64453,0.5625 1.875,0.5625 1.21875,0 2.16797,-0.52734 0.94922,-0.53906 1.39453,-1.46485 0.33985,-0.71484 0.33985,-2.10937 z"
               style="font-size:24px;font-family:Arial;dominant-baseline:middle;text-anchor:middle"
               id="path32627" />
            <path
               d="m 330.04959,143.80283 2.05078,0.30468 q 0.12891,0.94922 0.71485,1.38282 0.78515,0.58593 2.14453,0.58593 1.46484,0 2.26172,-0.58593 0.79687,-0.58594 1.07812,-1.64063 0.16406,-0.64453 0.15234,-2.70703 -1.38281,1.62891 -3.44531,1.62891 -2.5664,0 -3.97265,-1.85157 -1.40625,-1.85156 -1.40625,-4.4414 0,-1.78125 0.64453,-3.28125 0.64453,-1.51172 1.86328,-2.33203 1.23047,-0.82032 2.88281,-0.82032 2.20313,0 3.63281,1.78125 v -1.5 h 1.94532 v 10.75782 q 0,2.90625 -0.59766,4.11328 -0.58594,1.21875 -1.875,1.92187 -1.27734,0.70313 -3.15234,0.70313 -2.22657,0 -3.59766,-1.00782 -1.37109,-0.99609 -1.32422,-3.01171 z m 1.74609,-7.47657 q 0,2.44922 0.97266,3.57422 0.97266,1.125 2.4375,1.125 1.45313,0 2.4375,-1.11328 0.98438,-1.125 0.98438,-3.51562 0,-2.28516 -1.01954,-3.44532 -1.00781,-1.16015 -2.4375,-1.16015 -1.40625,0 -2.39062,1.14843 -0.98438,1.13672 -0.98438,3.38672 z"
               style="font-size:24px;font-family:Arial;dominant-baseline:middle;text-anchor:middle"
               id="path32629" />
            <path
               d="m 352.3035,138.76376 2.17968,0.26953 q -0.51562,1.91016 -1.91015,2.96485 -1.39453,1.05469 -3.5625,1.05469 -2.73047,0 -4.33594,-1.67579 -1.59375,-1.6875 -1.59375,-4.72265 0,-3.14063 1.61719,-4.875 1.61719,-1.73438 4.19531,-1.73438 2.49609,0 4.07813,1.69922 1.58203,1.69922 1.58203,4.78125 0,0.1875 -0.0117,0.5625 h -9.28125 q 0.11719,2.05078 1.16015,3.14063 1.04297,1.08984 2.60157,1.08984 1.16015,0 1.98047,-0.60937 0.82031,-0.60938 1.30078,-1.94532 z m -6.92578,-3.41015 h 6.94921 q -0.14062,-1.57032 -0.79687,-2.35547 -1.00781,-1.21875 -2.61328,-1.21875 -1.45313,0 -2.44922,0.97265 -0.98438,0.97266 -1.08984,2.60157 z"
               style="font-size:24px;font-family:Arial;dominant-baseline:middle;text-anchor:middle"
               id="path32631" />
            <path
               d="m 356.28787,139.05673 2.08594,-0.32812 q 0.17578,1.2539 0.97266,1.92187 0.80859,0.66797 2.25,0.66797 1.45312,0 2.15625,-0.58594 0.70312,-0.59765 0.70312,-1.39453 0,-0.71484 -0.62109,-1.125 -0.4336,-0.28125 -2.15625,-0.71484 -2.32032,-0.58594 -3.22266,-1.00781 -0.89062,-0.4336 -1.35937,-1.1836 -0.45704,-0.76172 -0.45704,-1.67578 0,-0.83203 0.375,-1.53516 0.38672,-0.71484 1.04297,-1.18359 0.49219,-0.36328 1.33594,-0.60937 0.85547,-0.25782 1.82813,-0.25782 1.46484,0 2.5664,0.42188 1.11328,0.42187 1.64063,1.14844 0.52734,0.71484 0.72656,1.92187 l -2.0625,0.28125 q -0.14063,-0.96094 -0.82031,-1.5 -0.66797,-0.53906 -1.89844,-0.53906 -1.45313,0 -2.07422,0.48047 -0.62109,0.48047 -0.62109,1.125 0,0.41015 0.25781,0.73828 0.25781,0.33984 0.80859,0.5625 0.31641,0.11719 1.86328,0.53906 2.23829,0.59766 3.11719,0.98438 0.89063,0.375 1.39453,1.10156 0.50391,0.72656 0.50391,1.80469 0,1.05468 -0.62109,1.99218 -0.60938,0.92578 -1.76954,1.44141 -1.16015,0.50391 -2.625,0.50391 -2.42578,0 -3.70312,-1.00782 -1.26563,-1.00781 -1.61719,-2.98828 z"
               style="font-size:24px;font-family:Arial;dominant-baseline:middle;text-anchor:middle"
               id="path32633" />
          </g>
          <g
             aria-label="Unable to load images from the media manager. Check your settings or try again"
             id="text33-6"
             style="font-size:12px;font-family:Arial;dominant-baseline:middle;text-anchor:middle">
            <path
               d="m 77.263626,157.55324 h 1.136719 v 4.96289 q 0,1.29492 -0.292969,2.05664 -0.292969,0.76172 -1.060547,1.24219 -0.761719,0.47461 -2.003906,0.47461 -1.207031,0 -1.974609,-0.41602 -0.767579,-0.41602 -1.095704,-1.20117 -0.328125,-0.79102 -0.328125,-2.15625 v -4.96289 h 1.136719 v 4.95703 q 0,1.11914 0.205078,1.65234 0.210938,0.52735 0.714844,0.81446 0.509766,0.28711 1.242188,0.28711 1.253906,0 1.787109,-0.56836 0.533203,-0.56836 0.533203,-2.18555 z"
               id="path34538" />
            <path
               d="m 80.158157,166.14308 v -6.22265 h 0.949219 v 0.88476 q 0.685547,-1.02539 1.980469,-1.02539 0.5625,0 1.03125,0.20508 0.474609,0.19922 0.708984,0.52734 0.234375,0.32813 0.328125,0.7793 0.05859,0.29297 0.05859,1.02539 v 3.82617 H 84.16011 v -3.78515 q 0,-0.64454 -0.123046,-0.96094 -0.123047,-0.32227 -0.439454,-0.50977 -0.310546,-0.19336 -0.732421,-0.19336 -0.673829,0 -1.166016,0.42774 -0.486328,0.42773 -0.486328,1.62304 v 3.39844 z"
               id="path34540" />
            <path
               d="m 90.892532,165.3755 q -0.585937,0.49805 -1.130859,0.70313 -0.539063,0.20508 -1.160156,0.20508 -1.025391,0 -1.576172,-0.49805 -0.550781,-0.50391 -0.550781,-1.2832 0,-0.45703 0.205078,-0.83203 0.210937,-0.38086 0.544922,-0.60938 0.339843,-0.22852 0.761718,-0.3457 0.310547,-0.082 0.9375,-0.15821 1.277344,-0.15234 1.88086,-0.36328 0.0059,-0.21679 0.0059,-0.27539 0,-0.64453 -0.298828,-0.9082 -0.404297,-0.35742 -1.201172,-0.35742 -0.744141,0 -1.101562,0.26367 -0.351563,0.25781 -0.521485,0.91992 l -1.03125,-0.14062 q 0.140625,-0.66211 0.462891,-1.06641 0.322265,-0.41016 0.93164,-0.62695 0.609375,-0.22266 1.41211,-0.22266 0.796875,0 1.294922,0.1875 0.498047,0.1875 0.732422,0.47461 0.234375,0.28125 0.328125,0.71484 0.05273,0.26953 0.05273,0.97266 v 1.40625 q 0,1.4707 0.06445,1.86328 0.07031,0.38672 0.269531,0.74414 H 91.10347 q -0.164063,-0.32812 -0.210938,-0.76758 z m -0.08789,-2.35547 q -0.574219,0.23438 -1.722657,0.39844 -0.65039,0.0937 -0.919921,0.21094 -0.269532,0.11719 -0.416016,0.3457 -0.146484,0.22266 -0.146484,0.49805 0,0.42187 0.316406,0.70312 0.322265,0.28125 0.9375,0.28125 0.609375,0 1.083984,-0.26367 0.47461,-0.26953 0.697266,-0.73242 0.169922,-0.35742 0.169922,-1.05469 z"
               id="path34542" />
            <path
               d="m 94.47847,166.14308 h -0.978516 v -8.58984 h 1.054688 v 3.06445 q 0.667968,-0.83789 1.705078,-0.83789 0.574219,0 1.083984,0.23438 0.515625,0.22851 0.84375,0.65039 0.333985,0.41601 0.521485,1.00781 0.1875,0.5918 0.1875,1.26562 0,1.59961 -0.791016,2.47266 -0.791016,0.87305 -1.898438,0.87305 -1.101562,0 -1.728515,-0.91993 z m -0.01172,-3.1582 q 0,1.11914 0.304688,1.61719 0.498046,0.81445 1.347656,0.81445 0.691406,0 1.195312,-0.59766 0.503907,-0.60351 0.503907,-1.79297 0,-1.21875 -0.486329,-1.79882 -0.480468,-0.58008 -1.166015,-0.58008 -0.691406,0 -1.195313,0.60351 -0.503906,0.59766 -0.503906,1.73438 z"
               id="path34544" />
            <path
               d="m 100.1562,166.14308 v -8.58984 h 1.05469 v 8.58984 z"
               id="path34546" />
            <path
               d="m 107.10542,164.13918 1.08985,0.13476 q -0.25782,0.95508 -0.95508,1.48242 -0.69727,0.52735 -1.78125,0.52735 -1.36524,0 -2.16797,-0.83789 -0.79688,-0.84375 -0.79688,-2.36133 0,-1.57031 0.8086,-2.4375 0.80859,-0.86719 2.09765,-0.86719 1.24805,0 2.03907,0.84961 0.79101,0.84961 0.79101,2.39062 0,0.0937 -0.006,0.28125 h -4.64062 q 0.0586,1.0254 0.58008,1.57032 0.52148,0.54492 1.30078,0.54492 0.58008,0 0.99023,-0.30469 0.41016,-0.30469 0.65039,-0.97265 z m -3.46289,-1.70508 h 3.47461 q -0.0703,-0.78516 -0.39844,-1.17774 -0.5039,-0.60937 -1.30664,-0.60937 -0.72656,0 -1.22461,0.48633 -0.49218,0.48632 -0.54492,1.30078 z"
               id="path34548" />
            <path
               d="m 115.1562,165.19972 0.15235,0.93164 q -0.44531,0.0937 -0.79688,0.0937 -0.57422,0 -0.89062,-0.18164 -0.31641,-0.18164 -0.44531,-0.47461 -0.12891,-0.29883 -0.12891,-1.24804 v -3.58008 h -0.77344 v -0.82031 h 0.77344 v -1.54102 l 1.04883,-0.63281 v 2.17383 h 1.06054 v 0.82031 h -1.06054 v 3.63867 q 0,0.45117 0.0527,0.58008 0.0586,0.1289 0.18164,0.20508 0.12891,0.0762 0.36328,0.0762 0.17578,0 0.46289,-0.041 z"
               id="path34550" />
            <path
               d="m 115.79488,163.03175 q 0,-1.72851 0.96093,-2.56054 0.80274,-0.69141 1.95703,-0.69141 1.28321,0 2.09766,0.84375 0.81445,0.83789 0.81445,2.32031 0,1.20117 -0.36328,1.89258 -0.35742,0.68555 -1.04883,1.06641 -0.68554,0.38086 -1.5,0.38086 -1.30664,0 -2.11523,-0.83789 -0.80273,-0.83789 -0.80273,-2.41407 z m 1.08398,0 q 0,1.19532 0.52148,1.79297 0.52149,0.5918 1.3125,0.5918 0.78516,0 1.30665,-0.59766 0.52148,-0.59765 0.52148,-1.82226 0,-1.1543 -0.52734,-1.7461 -0.52149,-0.59765 -1.30079,-0.59765 -0.79101,0 -1.3125,0.59179 -0.52148,0.5918 -0.52148,1.78711 z"
               id="path34552" />
            <path
               d="m 126.17183,166.14308 v -8.58984 h 1.05469 v 8.58984 z"
               id="path34554" />
            <path
               d="m 128.4687,163.03175 q 0,-1.72851 0.96094,-2.56054 0.80274,-0.69141 1.95703,-0.69141 1.28321,0 2.09766,0.84375 0.81445,0.83789 0.81445,2.32031 0,1.20117 -0.36328,1.89258 -0.35742,0.68555 -1.04883,1.06641 -0.68554,0.38086 -1.5,0.38086 -1.30664,0 -2.11523,-0.83789 -0.80274,-0.83789 -0.80274,-2.41407 z m 1.08399,0 q 0,1.19532 0.52148,1.79297 0.52149,0.5918 1.3125,0.5918 0.78516,0 1.30664,-0.59766 0.52149,-0.59765 0.52149,-1.82226 0,-1.1543 -0.52735,-1.7461 -0.52148,-0.59765 -1.30078,-0.59765 -0.79101,0 -1.3125,0.59179 -0.52148,0.5918 -0.52148,1.78711 z"
               id="path34556" />
            <path
               d="m 139.59566,165.3755 q -0.58594,0.49805 -1.13086,0.70313 -0.53906,0.20508 -1.16016,0.20508 -1.02539,0 -1.57617,-0.49805 -0.55078,-0.50391 -0.55078,-1.2832 0,-0.45703 0.20508,-0.83203 0.21093,-0.38086 0.54492,-0.60938 0.33984,-0.22852 0.76172,-0.3457 0.31054,-0.082 0.9375,-0.15821 1.27734,-0.15234 1.88086,-0.36328 0.006,-0.21679 0.006,-0.27539 0,-0.64453 -0.29883,-0.9082 -0.4043,-0.35742 -1.20117,-0.35742 -0.74414,0 -1.10157,0.26367 -0.35156,0.25781 -0.52148,0.91992 l -1.03125,-0.14062 q 0.14062,-0.66211 0.46289,-1.06641 0.32227,-0.41016 0.93164,-0.62695 0.60938,-0.22266 1.41211,-0.22266 0.79687,0 1.29492,0.1875 0.49805,0.1875 0.73242,0.47461 0.23438,0.28125 0.32813,0.71484 0.0527,0.26953 0.0527,0.97266 v 1.40625 q 0,1.4707 0.0645,1.86328 0.0703,0.38672 0.26953,0.74414 h -1.10157 q -0.16406,-0.32812 -0.21093,-0.76758 z m -0.0879,-2.35547 q -0.57422,0.23438 -1.72266,0.39844 -0.65039,0.0937 -0.91992,0.21094 -0.26953,0.11719 -0.41602,0.3457 -0.14648,0.22266 -0.14648,0.49805 0,0.42187 0.3164,0.70312 0.32227,0.28125 0.9375,0.28125 0.60938,0 1.08399,-0.26367 0.47461,-0.26953 0.69726,-0.73242 0.16993,-0.35742 0.16993,-1.05469 z"
               id="path34558" />
            <path
               d="m 146.24605,166.14308 v -0.78515 q -0.5918,0.92578 -1.74024,0.92578 -0.74414,0 -1.37109,-0.41016 -0.62109,-0.41016 -0.9668,-1.14258 -0.33984,-0.73828 -0.33984,-1.69336 0,-0.93164 0.31055,-1.6875 0.31054,-0.76172 0.93164,-1.16601 0.62109,-0.4043 1.38867,-0.4043 0.5625,0 1.00195,0.24023 0.43945,0.23438 0.71485,0.61524 v -3.08203 h 1.04882 v 8.58984 z m -3.33399,-3.10547 q 0,1.19532 0.50391,1.78711 0.50391,0.5918 1.18945,0.5918 0.69141,0 1.17188,-0.5625 0.48633,-0.56836 0.48633,-1.72852 0,-1.27734 -0.49219,-1.875 -0.49219,-0.59765 -1.21289,-0.59765 -0.70313,0 -1.17774,0.57422 -0.46875,0.57421 -0.46875,1.81054 z"
               id="path34560" />
            <path
               d="m 152.22261,158.76613 v -1.21289 h 1.05469 v 1.21289 z m 0,7.37695 v -6.22265 h 1.05469 v 6.22265 z"
               id="path34562" />
            <path
               d="m 154.88277,166.14308 v -6.22265 h 0.94336 v 0.87304 q 0.29296,-0.45703 0.77929,-0.73242 0.48633,-0.28125 1.10742,-0.28125 0.69141,0 1.13086,0.28711 0.44532,0.28711 0.62696,0.80273 0.73828,-1.08984 1.92187,-1.08984 0.92578,0 1.42383,0.51563 0.49805,0.50976 0.49805,1.57617 v 4.27148 h -1.04883 v -3.91992 q 0,-0.63281 -0.10547,-0.9082 -0.0996,-0.28125 -0.36914,-0.45118 -0.26953,-0.16992 -0.63281,-0.16992 -0.65625,0 -1.08985,0.43946 -0.43359,0.43359 -0.43359,1.39453 v 3.61523 h -1.05469 v -4.04297 q 0,-0.70312 -0.25781,-1.05468 -0.25781,-0.35157 -0.84375,-0.35157 -0.44531,0 -0.82617,0.23438 -0.375,0.23437 -0.54492,0.68554 -0.16993,0.45118 -0.16993,1.30079 v 3.22851 z"
               id="path34564" />
            <path
               d="m 168.93941,165.3755 q -0.58594,0.49805 -1.13086,0.70313 -0.53906,0.20508 -1.16016,0.20508 -1.02539,0 -1.57617,-0.49805 -0.55078,-0.50391 -0.55078,-1.2832 0,-0.45703 0.20508,-0.83203 0.21093,-0.38086 0.54492,-0.60938 0.33984,-0.22852 0.76172,-0.3457 0.31054,-0.082 0.9375,-0.15821 1.27734,-0.15234 1.88086,-0.36328 0.006,-0.21679 0.006,-0.27539 0,-0.64453 -0.29883,-0.9082 -0.4043,-0.35742 -1.20117,-0.35742 -0.74414,0 -1.10157,0.26367 -0.35156,0.25781 -0.52148,0.91992 l -1.03125,-0.14062 q 0.14062,-0.66211 0.46289,-1.06641 0.32227,-0.41016 0.93164,-0.62695 0.60938,-0.22266 1.41211,-0.22266 0.79687,0 1.29492,0.1875 0.49805,0.1875 0.73242,0.47461 0.23438,0.28125 0.32813,0.71484 0.0527,0.26953 0.0527,0.97266 v 1.40625 q 0,1.4707 0.0645,1.86328 0.0703,0.38672 0.26953,0.74414 h -1.10157 q -0.16406,-0.32812 -0.21093,-0.76758 z m -0.0879,-2.35547 q -0.57422,0.23438 -1.72266,0.39844 -0.65039,0.0937 -0.91992,0.21094 -0.26953,0.11719 -0.41602,0.3457 -0.14648,0.22266 -0.14648,0.49805 0,0.42187 0.3164,0.70312 0.32227,0.28125 0.9375,0.28125 0.60938,0 1.08399,-0.26367 0.47461,-0.26953 0.69726,-0.73242 0.16993,-0.35742 0.16993,-1.05469 z"
               id="path34566" />
            <path
               d="m 171.35933,166.65871 1.02539,0.15234 q 0.0645,0.47461 0.35742,0.69141 0.39258,0.29297 1.07227,0.29297 0.73242,0 1.13086,-0.29297 0.39843,-0.29297 0.53906,-0.82032 0.082,-0.32226 0.0762,-1.35351 -0.69141,0.81445 -1.72266,0.81445 -1.2832,0 -1.98632,-0.92578 -0.70313,-0.92578 -0.70313,-2.2207 0,-0.89063 0.32227,-1.64063 0.32226,-0.75586 0.93164,-1.16601 0.61523,-0.41016 1.4414,-0.41016 1.10157,0 1.81641,0.89063 v -0.75 h 0.97266 v 5.3789 q 0,1.45313 -0.29883,2.05664 -0.29297,0.60938 -0.9375,0.96094 -0.63867,0.35156 -1.57617,0.35156 -1.11328,0 -1.79883,-0.5039 -0.68555,-0.49805 -0.66211,-1.50586 z m 0.87305,-3.73828 q 0,1.2246 0.48632,1.7871 0.48633,0.5625 1.21875,0.5625 0.72657,0 1.21875,-0.55664 0.49219,-0.5625 0.49219,-1.75781 0,-1.14258 -0.50976,-1.72265 -0.50391,-0.58008 -1.21875,-0.58008 -0.70313,0 -1.19532,0.57422 -0.49218,0.56836 -0.49218,1.69336 z"
               id="path34568" />
            <path
               d="m 182.48628,164.13918 1.08985,0.13476 q -0.25782,0.95508 -0.95508,1.48242 -0.69727,0.52735 -1.78125,0.52735 -1.36524,0 -2.16797,-0.83789 -0.79688,-0.84375 -0.79688,-2.36133 0,-1.57031 0.8086,-2.4375 0.80859,-0.86719 2.09765,-0.86719 1.24805,0 2.03907,0.84961 0.79101,0.84961 0.79101,2.39062 0,0.0937 -0.006,0.28125 h -4.64062 q 0.0586,1.0254 0.58008,1.57032 0.52148,0.54492 1.30078,0.54492 0.58008,0 0.99023,-0.30469 0.41016,-0.30469 0.65039,-0.97265 z m -3.46289,-1.70508 h 3.47461 q -0.0703,-0.78516 -0.39844,-1.17774 -0.5039,-0.60937 -1.30664,-0.60937 -0.72656,0 -1.22461,0.48633 -0.49218,0.48632 -0.54492,1.30078 z"
               id="path34570" />
            <path
               d="m 184.47847,164.28566 1.04297,-0.16406 q 0.0879,0.62695 0.48633,0.96093 0.40429,0.33399 1.125,0.33399 0.72656,0 1.07812,-0.29297 0.35156,-0.29883 0.35156,-0.69727 0,-0.35742 -0.31054,-0.5625 -0.2168,-0.14062 -1.07813,-0.35742 -1.16015,-0.29297 -1.61133,-0.5039 -0.44531,-0.2168 -0.67968,-0.5918 -0.22852,-0.38086 -0.22852,-0.83789 0,-0.41602 0.1875,-0.76758 0.19336,-0.35742 0.52149,-0.5918 0.24609,-0.18164 0.66796,-0.30468 0.42774,-0.12891 0.91407,-0.12891 0.73242,0 1.2832,0.21094 0.55664,0.21094 0.82031,0.57422 0.26367,0.35742 0.36328,0.96093 l -1.03125,0.14063 q -0.0703,-0.48047 -0.41015,-0.75 -0.33399,-0.26953 -0.94922,-0.26953 -0.72656,0 -1.03711,0.24023 -0.31055,0.24024 -0.31055,0.5625 0,0.20508 0.12891,0.36914 0.1289,0.16992 0.4043,0.28125 0.1582,0.0586 0.93164,0.26953 1.11914,0.29883 1.55859,0.49219 0.44531,0.1875 0.69727,0.55078 0.25195,0.36328 0.25195,0.90235 0,0.52734 -0.31055,0.99609 -0.30469,0.46289 -0.88476,0.7207 -0.58008,0.25196 -1.3125,0.25196 -1.21289,0 -1.85157,-0.50391 -0.63281,-0.50391 -0.80859,-1.49414 z"
               id="path34572" />
            <path
               d="m 194.48628,166.14308 v -5.40234 h -0.93164 v -0.82031 h 0.93164 v -0.66211 q 0,-0.62696 0.11133,-0.93164 0.15234,-0.41016 0.5332,-0.66211 0.38672,-0.25782 1.07813,-0.25782 0.44531,0 0.98437,0.10547 l -0.1582,0.91992 q -0.32812,-0.0586 -0.62109,-0.0586 -0.48047,0 -0.67969,0.20508 -0.19922,0.20508 -0.19922,0.76758 v 0.57422 h 1.21289 v 0.82031 h -1.21289 v 5.40234 z"
               id="path34574" />
            <path
               d="m 197.55659,166.14308 v -6.22265 h 0.94922 v 0.94335 q 0.36328,-0.6621 0.66797,-0.87304 0.31055,-0.21094 0.67969,-0.21094 0.5332,0 1.08398,0.33984 l -0.36328,0.97852 q -0.38672,-0.22852 -0.77343,-0.22852 -0.34571,0 -0.6211,0.21094 -0.27539,0.20508 -0.39258,0.57422 -0.17578,0.5625 -0.17578,1.23047 v 3.25781 z"
               id="path34576" />
            <path
               d="m 201.17183,163.03175 q 0,-1.72851 0.96094,-2.56054 0.80273,-0.69141 1.95703,-0.69141 1.2832,0 2.09765,0.84375 0.81446,0.83789 0.81446,2.32031 0,1.20117 -0.36328,1.89258 -0.35743,0.68555 -1.04883,1.06641 -0.68555,0.38086 -1.5,0.38086 -1.30664,0 -2.11524,-0.83789 -0.80273,-0.83789 -0.80273,-2.41407 z m 1.08398,0 q 0,1.19532 0.52149,1.79297 0.52148,0.5918 1.3125,0.5918 0.78515,0 1.30664,-0.59766 0.52148,-0.59765 0.52148,-1.82226 0,-1.1543 -0.52734,-1.7461 -0.52149,-0.59765 -1.30078,-0.59765 -0.79102,0 -1.3125,0.59179 -0.52149,0.5918 -0.52149,1.78711 z"
               id="path34578" />
            <path
               d="m 208.23824,166.14308 v -6.22265 h 0.94335 v 0.87304 q 0.29297,-0.45703 0.7793,-0.73242 0.48633,-0.28125 1.10742,-0.28125 0.69141,0 1.13086,0.28711 0.44532,0.28711 0.62696,0.80273 0.73828,-1.08984 1.92187,-1.08984 0.92578,0 1.42383,0.51563 0.49805,0.50976 0.49805,1.57617 v 4.27148 h -1.04883 v -3.91992 q 0,-0.63281 -0.10547,-0.9082 -0.0996,-0.28125 -0.36914,-0.45118 -0.26953,-0.16992 -0.63281,-0.16992 -0.65625,0 -1.08985,0.43946 -0.43359,0.43359 -0.43359,1.39453 v 3.61523 h -1.05469 v -4.04297 q 0,-0.70312 -0.25781,-1.05468 -0.25781,-0.35157 -0.84375,-0.35157 -0.44531,0 -0.82617,0.23438 -0.375,0.23437 -0.54493,0.68554 -0.16992,0.45118 -0.16992,1.30079 v 3.22851 z"
               id="path34580" />
            <path
               d="m 223.87105,165.19972 0.15234,0.93164 q -0.44531,0.0937 -0.79687,0.0937 -0.57422,0 -0.89063,-0.18164 -0.3164,-0.18164 -0.44531,-0.47461 -0.12891,-0.29883 -0.12891,-1.24804 v -3.58008 h -0.77343 v -0.82031 h 0.77343 v -1.54102 l 1.04883,-0.63281 v 2.17383 h 1.06055 v 0.82031 h -1.06055 v 3.63867 q 0,0.45117 0.0527,0.58008 0.0586,0.1289 0.18164,0.20508 0.1289,0.0762 0.36328,0.0762 0.17578,0 0.46289,-0.041 z"
               id="path34582" />
            <path
               d="m 224.9023,166.14308 v -8.58984 h 1.05469 v 3.08203 q 0.73828,-0.85547 1.86328,-0.85547 0.6914,0 1.20117,0.27539 0.50976,0.26953 0.72656,0.75 0.22266,0.48047 0.22266,1.39453 v 3.94336 h -1.05469 v -3.94336 q 0,-0.79101 -0.3457,-1.14844 -0.33985,-0.36328 -0.9668,-0.36328 -0.46875,0 -0.88477,0.2461 -0.41015,0.24023 -0.58593,0.65625 -0.17578,0.41601 -0.17578,1.14843 v 3.4043 z"
               id="path34584" />
            <path
               d="m 235.83589,164.13918 1.08985,0.13476 q -0.25782,0.95508 -0.95508,1.48242 -0.69727,0.52735 -1.78125,0.52735 -1.36524,0 -2.16797,-0.83789 -0.79688,-0.84375 -0.79688,-2.36133 0,-1.57031 0.8086,-2.4375 0.80859,-0.86719 2.09765,-0.86719 1.24805,0 2.03907,0.84961 0.79101,0.84961 0.79101,2.39062 0,0.0937 -0.006,0.28125 h -4.64062 q 0.0586,1.0254 0.58008,1.57032 0.52148,0.54492 1.30078,0.54492 0.58007,0 0.99023,-0.30469 0.41016,-0.30469 0.65039,-0.97265 z M 232.373,162.4341 h 3.47461 q -0.0703,-0.78516 -0.39844,-1.17774 -0.5039,-0.60937 -1.30664,-0.60937 -0.72656,0 -1.22461,0.48633 -0.49218,0.48632 -0.54492,1.30078 z"
               id="path34586" />
            <path
               d="m 241.58394,166.14308 v -6.22265 h 0.94336 v 0.87304 q 0.29297,-0.45703 0.77929,-0.73242 0.48633,-0.28125 1.10743,-0.28125 0.6914,0 1.13086,0.28711 0.44531,0.28711 0.62695,0.80273 0.73828,-1.08984 1.92187,-1.08984 0.92579,0 1.42383,0.51563 0.49805,0.50976 0.49805,1.57617 v 4.27148 h -1.04883 v -3.91992 q 0,-0.63281 -0.10547,-0.9082 -0.0996,-0.28125 -0.36914,-0.45118 -0.26953,-0.16992 -0.63281,-0.16992 -0.65625,0 -1.08984,0.43946 -0.4336,0.43359 -0.4336,1.39453 v 3.61523 h -1.05469 v -4.04297 q 0,-0.70312 -0.25781,-1.05468 -0.25781,-0.35157 -0.84375,-0.35157 -0.44531,0 -0.82617,0.23438 -0.375,0.23437 -0.54492,0.68554 -0.16992,0.45118 -0.16992,1.30079 v 3.22851 z"
               id="path34588" />
            <path
               d="m 255.8398,164.13918 1.08984,0.13476 q -0.25781,0.95508 -0.95508,1.48242 -0.69726,0.52735 -1.78125,0.52735 -1.36523,0 -2.16797,-0.83789 -0.79687,-0.84375 -0.79687,-2.36133 0,-1.57031 0.80859,-2.4375 0.8086,-0.86719 2.09766,-0.86719 1.24805,0 2.03906,0.84961 0.79102,0.84961 0.79102,2.39062 0,0.0937 -0.006,0.28125 h -4.64063 q 0.0586,1.0254 0.58008,1.57032 0.52149,0.54492 1.30078,0.54492 0.58008,0 0.99024,-0.30469 0.41015,-0.30469 0.65039,-0.97265 z m -3.46289,-1.70508 h 3.47461 q -0.0703,-0.78516 -0.39844,-1.17774 -0.50391,-0.60937 -1.30664,-0.60937 -0.72656,0 -1.22461,0.48633 -0.49219,0.48632 -0.54492,1.30078 z"
               id="path34590" />
            <path
               d="m 262.29097,166.14308 v -0.78515 q -0.5918,0.92578 -1.74023,0.92578 -0.74415,0 -1.3711,-0.41016 -0.62109,-0.41016 -0.9668,-1.14258 -0.33984,-0.73828 -0.33984,-1.69336 0,-0.93164 0.31055,-1.6875 0.31054,-0.76172 0.93164,-1.16601 0.62109,-0.4043 1.38867,-0.4043 0.5625,0 1.00195,0.24023 0.43946,0.23438 0.71485,0.61524 v -3.08203 h 1.04883 v 8.58984 z m -3.33398,-3.10547 q 0,1.19532 0.5039,1.78711 0.50391,0.5918 1.18945,0.5918 0.69141,0 1.17188,-0.5625 0.48633,-0.56836 0.48633,-1.72852 0,-1.27734 -0.49219,-1.875 -0.49219,-0.59765 -1.21289,-0.59765 -0.70313,0 -1.17773,0.57422 -0.46875,0.57421 -0.46875,1.81054 z"
               id="path34592" />
            <path
               d="m 264.93355,158.76613 v -1.21289 h 1.05469 v 1.21289 z m 0,7.37695 v -6.22265 h 1.05469 v 6.22265 z"
               id="path34594" />
            <path
               d="m 271.65425,165.3755 q -0.58594,0.49805 -1.13086,0.70313 -0.53906,0.20508 -1.16015,0.20508 -1.0254,0 -1.57618,-0.49805 -0.55078,-0.50391 -0.55078,-1.2832 0,-0.45703 0.20508,-0.83203 0.21094,-0.38086 0.54492,-0.60938 0.33985,-0.22852 0.76172,-0.3457 0.31055,-0.082 0.9375,-0.15821 1.27734,-0.15234 1.88086,-0.36328 0.006,-0.21679 0.006,-0.27539 0,-0.64453 -0.29883,-0.9082 -0.4043,-0.35742 -1.20117,-0.35742 -0.74414,0 -1.10156,0.26367 -0.35157,0.25781 -0.52149,0.91992 l -1.03125,-0.14062 q 0.14063,-0.66211 0.46289,-1.06641 0.32227,-0.41016 0.93164,-0.62695 0.60938,-0.22266 1.41211,-0.22266 0.79688,0 1.29493,0.1875 0.49804,0.1875 0.73242,0.47461 0.23437,0.28125 0.32812,0.71484 0.0527,0.26953 0.0527,0.97266 v 1.40625 q 0,1.4707 0.0645,1.86328 0.0703,0.38672 0.26953,0.74414 h -1.10156 q -0.16406,-0.32812 -0.21094,-0.76758 z m -0.0879,-2.35547 q -0.57422,0.23438 -1.72266,0.39844 -0.65039,0.0937 -0.91992,0.21094 -0.26953,0.11719 -0.41601,0.3457 -0.14649,0.22266 -0.14649,0.49805 0,0.42187 0.31641,0.70312 0.32226,0.28125 0.9375,0.28125 0.60937,0 1.08398,-0.26367 0.47461,-0.26953 0.69727,-0.73242 0.16992,-0.35742 0.16992,-1.05469 z"
               id="path34596" />
            <path
               d="m 277.60152,166.14308 v -6.22265 h 0.94336 v 0.87304 q 0.29296,-0.45703 0.77929,-0.73242 0.48633,-0.28125 1.10742,-0.28125 0.69141,0 1.13086,0.28711 0.44532,0.28711 0.62696,0.80273 0.73828,-1.08984 1.92187,-1.08984 0.92578,0 1.42383,0.51563 0.49805,0.50976 0.49805,1.57617 v 4.27148 h -1.04883 v -3.91992 q 0,-0.63281 -0.10547,-0.9082 -0.0996,-0.28125 -0.36914,-0.45118 -0.26953,-0.16992 -0.63281,-0.16992 -0.65625,0 -1.08985,0.43946 -0.43359,0.43359 -0.43359,1.39453 v 3.61523 h -1.05469 v -4.04297 q 0,-0.70312 -0.25781,-1.05468 -0.25781,-0.35157 -0.84375,-0.35157 -0.44531,0 -0.82617,0.23438 -0.375,0.23437 -0.54492,0.68554 -0.16993,0.45118 -0.16993,1.30079 v 3.22851 z"
               id="path34598" />
            <path
               d="m 291.65816,165.3755 q -0.58594,0.49805 -1.13086,0.70313 -0.53906,0.20508 -1.16016,0.20508 -1.02539,0 -1.57617,-0.49805 -0.55078,-0.50391 -0.55078,-1.2832 0,-0.45703 0.20508,-0.83203 0.21093,-0.38086 0.54492,-0.60938 0.33984,-0.22852 0.76172,-0.3457 0.31054,-0.082 0.9375,-0.15821 1.27734,-0.15234 1.88086,-0.36328 0.006,-0.21679 0.006,-0.27539 0,-0.64453 -0.29883,-0.9082 -0.4043,-0.35742 -1.20117,-0.35742 -0.74414,0 -1.10157,0.26367 -0.35156,0.25781 -0.52148,0.91992 l -1.03125,-0.14062 q 0.14062,-0.66211 0.46289,-1.06641 0.32227,-0.41016 0.93164,-0.62695 0.60938,-0.22266 1.41211,-0.22266 0.79687,0 1.29492,0.1875 0.49805,0.1875 0.73242,0.47461 0.23438,0.28125 0.32813,0.71484 0.0527,0.26953 0.0527,0.97266 v 1.40625 q 0,1.4707 0.0645,1.86328 0.0703,0.38672 0.26953,0.74414 h -1.10157 q -0.16406,-0.32812 -0.21093,-0.76758 z m -0.0879,-2.35547 q -0.57422,0.23438 -1.72266,0.39844 -0.65039,0.0937 -0.91992,0.21094 -0.26953,0.11719 -0.41602,0.3457 -0.14648,0.22266 -0.14648,0.49805 0,0.42187 0.3164,0.70312 0.32227,0.28125 0.9375,0.28125 0.60938,0 1.08399,-0.26367 0.47461,-0.26953 0.69726,-0.73242 0.16993,-0.35742 0.16993,-1.05469 z"
               id="path34600" />
            <path
               d="m 294.27144,166.14308 v -6.22265 h 0.94922 v 0.88476 q 0.68554,-1.02539 1.98047,-1.02539 0.5625,0 1.03125,0.20508 0.47461,0.19922 0.70898,0.52734 0.23438,0.32813 0.32813,0.7793 0.0586,0.29297 0.0586,1.02539 v 3.82617 h -1.05469 v -3.78515 q 0,-0.64454 -0.12305,-0.96094 -0.12304,-0.32227 -0.43945,-0.50977 -0.31055,-0.19336 -0.73242,-0.19336 -0.67383,0 -1.16602,0.42774 -0.48632,0.42773 -0.48632,1.62304 v 3.39844 z"
               id="path34602" />
            <path
               d="m 305.00581,165.3755 q -0.58593,0.49805 -1.13086,0.70313 -0.53906,0.20508 -1.16015,0.20508 -1.02539,0 -1.57617,-0.49805 -0.55079,-0.50391 -0.55079,-1.2832 0,-0.45703 0.20508,-0.83203 0.21094,-0.38086 0.54492,-0.60938 0.33985,-0.22852 0.76172,-0.3457 0.31055,-0.082 0.9375,-0.15821 1.27735,-0.15234 1.88086,-0.36328 0.006,-0.21679 0.006,-0.27539 0,-0.64453 -0.29883,-0.9082 -0.40429,-0.35742 -1.20117,-0.35742 -0.74414,0 -1.10156,0.26367 -0.35156,0.25781 -0.52148,0.91992 l -1.03125,-0.14062 q 0.14062,-0.66211 0.46289,-1.06641 0.32226,-0.41016 0.93164,-0.62695 0.60937,-0.22266 1.41211,-0.22266 0.79687,0 1.29492,0.1875 0.49804,0.1875 0.73242,0.47461 0.23437,0.28125 0.32812,0.71484 0.0527,0.26953 0.0527,0.97266 v 1.40625 q 0,1.4707 0.0645,1.86328 0.0703,0.38672 0.26953,0.74414 h -1.10156 q -0.16406,-0.32812 -0.21094,-0.76758 z m -0.0879,-2.35547 q -0.57422,0.23438 -1.72265,0.39844 -0.65039,0.0937 -0.91993,0.21094 -0.26953,0.11719 -0.41601,0.3457 -0.14649,0.22266 -0.14649,0.49805 0,0.42187 0.31641,0.70312 0.32227,0.28125 0.9375,0.28125 0.60938,0 1.08399,-0.26367 0.4746,-0.26953 0.69726,-0.73242 0.16992,-0.35742 0.16992,-1.05469 z"
               id="path34604" />
            <path
               d="m 307.42574,166.65871 1.02539,0.15234 q 0.0645,0.47461 0.35742,0.69141 0.39258,0.29297 1.07226,0.29297 0.73243,0 1.13086,-0.29297 0.39844,-0.29297 0.53907,-0.82032 0.082,-0.32226 0.0762,-1.35351 -0.69141,0.81445 -1.72266,0.81445 -1.2832,0 -1.98633,-0.92578 -0.70312,-0.92578 -0.70312,-2.2207 0,-0.89063 0.32226,-1.64063 0.32227,-0.75586 0.93164,-1.16601 0.61524,-0.41016 1.44141,-0.41016 1.10156,0 1.81641,0.89063 v -0.75 h 0.97265 v 5.3789 q 0,1.45313 -0.29883,2.05664 -0.29296,0.60938 -0.9375,0.96094 -0.63867,0.35156 -1.57617,0.35156 -1.11328,0 -1.79883,-0.5039 -0.68554,-0.49805 -0.6621,-1.50586 z m 0.87304,-3.73828 q 0,1.2246 0.48633,1.7871 0.48633,0.5625 1.21875,0.5625 0.72656,0 1.21875,-0.55664 0.49219,-0.5625 0.49219,-1.75781 0,-1.14258 -0.50977,-1.72265 -0.5039,-0.58008 -1.21875,-0.58008 -0.70312,0 -1.19531,0.57422 -0.49219,0.56836 -0.49219,1.69336 z"
               id="path34606" />
            <path
               d="m 318.55269,164.13918 1.08984,0.13476 q -0.25781,0.95508 -0.95508,1.48242 -0.69726,0.52735 -1.78125,0.52735 -1.36523,0 -2.16796,-0.83789 -0.79688,-0.84375 -0.79688,-2.36133 0,-1.57031 0.80859,-2.4375 0.8086,-0.86719 2.09766,-0.86719 1.24805,0 2.03906,0.84961 0.79102,0.84961 0.79102,2.39062 0,0.0937 -0.006,0.28125 h -4.64063 q 0.0586,1.0254 0.58008,1.57032 0.52149,0.54492 1.30078,0.54492 0.58008,0 0.99024,-0.30469 0.41015,-0.30469 0.65039,-0.97265 z m -3.46289,-1.70508 h 3.47461 q -0.0703,-0.78516 -0.39844,-1.17774 -0.50391,-0.60937 -1.30664,-0.60937 -0.72656,0 -1.22461,0.48633 -0.49219,0.48632 -0.54492,1.30078 z"
               id="path34608" />
            <path
               d="m 320.95503,166.14308 v -6.22265 h 0.94922 v 0.94335 q 0.36328,-0.6621 0.66797,-0.87304 0.31055,-0.21094 0.67969,-0.21094 0.5332,0 1.08398,0.33984 l -0.36328,0.97852 q -0.38672,-0.22852 -0.77344,-0.22852 -0.3457,0 -0.62109,0.21094 -0.27539,0.20508 -0.39258,0.57422 -0.17578,0.5625 -0.17578,1.23047 v 3.25781 z"
               id="path34610" />
            <path
               d="m 324.59956,166.14308 v -1.20117 h 1.20118 v 1.20117 z"
               id="path34612" />
            <path
               d="m 121.45503,178.13136 1.13672,0.28711 q -0.35742,1.40039 -1.28906,2.13867 -0.92578,0.73243 -2.26758,0.73243 -1.38867,0 -2.26172,-0.5625 -0.86719,-0.56836 -1.32422,-1.64063 -0.45117,-1.07226 -0.45117,-2.30273 0,-1.3418 0.50977,-2.33789 0.51562,-1.00196 1.45898,-1.51758 0.94922,-0.52149 2.08594,-0.52149 1.28906,0 2.16797,0.65625 0.8789,0.65625 1.22461,1.84571 l -1.11914,0.26367 q -0.29883,-0.9375 -0.86719,-1.36524 -0.56836,-0.42773 -1.42969,-0.42773 -0.99023,0 -1.6582,0.47461 -0.66211,0.47461 -0.93164,1.27734 -0.26953,0.79688 -0.26953,1.64649 0,1.0957 0.3164,1.91601 0.32227,0.81446 0.9961,1.21875 0.67382,0.4043 1.45898,0.4043 0.95508,0 1.61719,-0.55078 0.66211,-0.55078 0.89648,-1.63477 z"
               id="path34614" />
            <path
               d="m 123.85738,181.14308 v -8.58984 h 1.05468 v 3.08203 q 0.73828,-0.85547 1.86328,-0.85547 0.69141,0 1.20118,0.27539 0.50976,0.26953 0.72656,0.75 0.22266,0.48047 0.22266,1.39453 v 3.94336 h -1.05469 v -3.94336 q 0,-0.79101 -0.34571,-1.14844 -0.33984,-0.36328 -0.96679,-0.36328 -0.46875,0 -0.88477,0.2461 -0.41015,0.24023 -0.58594,0.65625 -0.17578,0.41601 -0.17578,1.14843 v 3.4043 z"
               id="path34616" />
            <path
               d="m 134.79097,179.13918 1.08984,0.13476 q -0.25781,0.95508 -0.95507,1.48242 -0.69727,0.52735 -1.78125,0.52735 -1.36524,0 -2.16797,-0.83789 -0.79688,-0.84375 -0.79688,-2.36133 0,-1.57031 0.8086,-2.4375 0.80859,-0.86719 2.09765,-0.86719 1.24805,0 2.03906,0.84961 0.79102,0.84961 0.79102,2.39062 0,0.0937 -0.006,0.28125 h -4.64062 q 0.0586,1.0254 0.58007,1.57032 0.52149,0.54492 1.30078,0.54492 0.58008,0 0.99024,-0.30469 0.41016,-0.30469 0.65039,-0.97265 z m -3.46289,-1.70508 h 3.47461 q -0.0703,-0.78516 -0.39844,-1.17774 -0.50391,-0.60937 -1.30664,-0.60937 -0.72656,0 -1.22461,0.48633 -0.49219,0.48632 -0.54492,1.30078 z"
               id="path34618" />
            <path
               d="m 141.26558,178.86378 1.03711,0.13477 q -0.16992,1.07227 -0.87305,1.68164 -0.69726,0.60352 -1.7168,0.60352 -1.27734,0 -2.05664,-0.83203 -0.77343,-0.8379 -0.77343,-2.39649 0,-1.00781 0.33398,-1.76367 0.33399,-0.75586 1.01367,-1.13086 0.68555,-0.38086 1.48828,-0.38086 1.01368,0 1.65821,0.51563 0.64453,0.50976 0.82617,1.45312 l -1.02539,0.1582 q -0.14649,-0.62695 -0.52149,-0.94336 -0.36914,-0.3164 -0.89648,-0.3164 -0.79688,0 -1.29492,0.57422 -0.49805,0.56836 -0.49805,1.80468 0,1.25391 0.48047,1.82227 0.48047,0.56836 1.25391,0.56836 0.62109,0 1.03711,-0.38086 0.41601,-0.38086 0.52734,-1.17188 z"
               id="path34620" />
            <path
               d="m 143.21089,181.14308 v -8.58984 h 1.05469 v 4.89844 l 2.49609,-2.53125 h 1.36524 l -2.37891,2.30859 2.61914,3.91406 h -1.30078 l -2.05664,-3.18164 -0.74414,0.71484 v 2.4668 z"
               id="path34622" />
            <path
               d="m 152.49214,183.53957 -0.11719,-0.99024 q 0.34571,0.0937 0.60352,0.0937 0.35156,0 0.5625,-0.11719 0.21094,-0.11718 0.3457,-0.32812 0.0996,-0.1582 0.32227,-0.78516 0.0293,-0.0879 0.0937,-0.25781 l -2.36133,-6.23437 h 1.13672 l 1.29492,3.60351 q 0.25195,0.68555 0.45117,1.44141 0.18164,-0.72657 0.4336,-1.41797 l 1.33007,-3.62695 h 1.05469 l -2.36719,6.32812 q -0.38085,1.02539 -0.59179,1.41211 -0.28125,0.52148 -0.64453,0.76172 -0.36328,0.24609 -0.86719,0.24609 -0.30469,0 -0.67969,-0.1289 z"
               id="path34624" />
            <path
               d="m 158.14644,178.03175 q 0,-1.72851 0.96094,-2.56054 0.80273,-0.69141 1.95703,-0.69141 1.2832,0 2.09765,0.84375 0.81446,0.83789 0.81446,2.32031 0,1.20117 -0.36328,1.89258 -0.35743,0.68555 -1.04883,1.06641 -0.68555,0.38086 -1.5,0.38086 -1.30664,0 -2.11524,-0.83789 -0.80273,-0.83789 -0.80273,-2.41407 z m 1.08398,0 q 0,1.19532 0.52149,1.79297 0.52148,0.5918 1.3125,0.5918 0.78515,0 1.30664,-0.59766 0.52148,-0.59765 0.52148,-1.82226 0,-1.1543 -0.52734,-1.7461 -0.52149,-0.59765 -1.30078,-0.59765 -0.79102,0 -1.3125,0.59179 -0.52149,0.5918 -0.52149,1.78711 z"
               id="path34626" />
            <path
               d="m 169.29097,181.14308 v -0.91406 q -0.72656,1.05469 -1.97461,1.05469 -0.55078,0 -1.03125,-0.21094 -0.47461,-0.21094 -0.70898,-0.52734 -0.22852,-0.32227 -0.32227,-0.78516 -0.0644,-0.31055 -0.0644,-0.98438 v -3.85546 h 1.05468 v 3.45117 q 0,0.82617 0.0645,1.11328 0.0996,0.41601 0.42187,0.65625 0.32227,0.23437 0.79688,0.23437 0.47461,0 0.89062,-0.24023 0.41602,-0.24609 0.58594,-0.66211 0.17578,-0.42188 0.17578,-1.21875 v -3.33398 h 1.05469 v 6.22265 z"
               id="path34628" />
            <path
               d="m 171.87495,181.14308 v -6.22265 h 0.94922 v 0.94335 q 0.36328,-0.6621 0.66797,-0.87304 0.31055,-0.21094 0.67969,-0.21094 0.5332,0 1.08398,0.33984 l -0.36328,0.97852 q -0.38672,-0.22852 -0.77344,-0.22852 -0.3457,0 -0.62109,0.21094 -0.27539,0.20508 -0.39258,0.57422 -0.17578,0.5625 -0.17578,1.23047 v 3.25781 z"
               id="path34630" />
            <path
               d="m 178.79488,179.28566 1.04296,-0.16406 q 0.0879,0.62695 0.48633,0.96093 0.4043,0.33399 1.125,0.33399 0.72657,0 1.07813,-0.29297 0.35156,-0.29883 0.35156,-0.69727 0,-0.35742 -0.31055,-0.5625 -0.21679,-0.14062 -1.07812,-0.35742 -1.16016,-0.29297 -1.61133,-0.5039 -0.44531,-0.2168 -0.67969,-0.5918 -0.22851,-0.38086 -0.22851,-0.83789 0,-0.41602 0.1875,-0.76758 0.19336,-0.35742 0.52148,-0.5918 0.2461,-0.18164 0.66797,-0.30468 0.42773,-0.12891 0.91406,-0.12891 0.73242,0 1.28321,0.21094 0.55664,0.21094 0.82031,0.57422 0.26367,0.35742 0.36328,0.96093 l -1.03125,0.14063 q -0.0703,-0.48047 -0.41016,-0.75 -0.33398,-0.26953 -0.94922,-0.26953 -0.72656,0 -1.0371,0.24023 -0.31055,0.24024 -0.31055,0.5625 0,0.20508 0.1289,0.36914 0.12891,0.16992 0.4043,0.28125 0.1582,0.0586 0.93164,0.26953 1.11914,0.29883 1.5586,0.49219 0.44531,0.1875 0.69726,0.55078 0.25195,0.36328 0.25195,0.90235 0,0.52734 -0.31054,0.99609 -0.30469,0.46289 -0.88477,0.7207 -0.58008,0.25196 -1.3125,0.25196 -1.21289,0 -1.85156,-0.50391 -0.63281,-0.50391 -0.80859,-1.49414 z"
               id="path34632" />
            <path
               d="m 189.47652,179.13918 1.08984,0.13476 q -0.25781,0.95508 -0.95508,1.48242 -0.69726,0.52735 -1.78125,0.52735 -1.36523,0 -2.16797,-0.83789 -0.79687,-0.84375 -0.79687,-2.36133 0,-1.57031 0.80859,-2.4375 0.8086,-0.86719 2.09766,-0.86719 1.24805,0 2.03906,0.84961 0.79102,0.84961 0.79102,2.39062 0,0.0937 -0.006,0.28125 h -4.64063 q 0.0586,1.0254 0.58008,1.57032 0.52148,0.54492 1.30078,0.54492 0.58008,0 0.99024,-0.30469 0.41015,-0.30469 0.65039,-0.97265 z m -3.46289,-1.70508 h 3.47461 q -0.0703,-0.78516 -0.39844,-1.17774 -0.50391,-0.60937 -1.30664,-0.60937 -0.72657,0 -1.22461,0.48633 -0.49219,0.48632 -0.54492,1.30078 z"
               id="path34634" />
            <path
               d="m 194.19331,180.19972 0.15235,0.93164 q -0.44532,0.0937 -0.79688,0.0937 -0.57422,0 -0.89062,-0.18164 -0.31641,-0.18164 -0.44532,-0.47461 -0.1289,-0.29883 -0.1289,-1.24804 v -3.58008 h -0.77344 v -0.82031 h 0.77344 v -1.54102 l 1.04883,-0.63281 v 2.17383 h 1.06054 v 0.82031 h -1.06054 v 3.63867 q 0,0.45117 0.0527,0.58008 0.0586,0.1289 0.18164,0.20508 0.12891,0.0762 0.36328,0.0762 0.17578,0 0.46289,-0.041 z"
               id="path34636" />
            <path
               d="m 197.5273,180.19972 0.15234,0.93164 q -0.44531,0.0937 -0.79687,0.0937 -0.57422,0 -0.89063,-0.18164 -0.3164,-0.18164 -0.44531,-0.47461 -0.12891,-0.29883 -0.12891,-1.24804 v -3.58008 h -0.77343 v -0.82031 h 0.77343 v -1.54102 l 1.04883,-0.63281 v 2.17383 h 1.06055 v 0.82031 h -1.06055 v 3.63867 q 0,0.45117 0.0527,0.58008 0.0586,0.1289 0.18164,0.20508 0.1289,0.0762 0.36328,0.0762 0.17578,0 0.46289,-0.041 z"
               id="path34638" />
            <path
               d="m 198.56441,173.76613 v -1.21289 h 1.05468 v 1.21289 z m 0,7.37695 v -6.22265 h 1.05468 v 6.22265 z"
               id="path34640" />
            <path
               d="m 201.22456,181.14308 v -6.22265 h 0.94922 v 0.88476 q 0.68555,-1.02539 1.98047,-1.02539 0.5625,0 1.03125,0.20508 0.47461,0.19922 0.70899,0.52734 0.23437,0.32813 0.32812,0.7793 0.0586,0.29297 0.0586,1.02539 v 3.82617 h -1.05468 v -3.78515 q 0,-0.64454 -0.12305,-0.96094 -0.12305,-0.32227 -0.43945,-0.50977 -0.31055,-0.19336 -0.73243,-0.19336 -0.67382,0 -1.16601,0.42774 -0.48633,0.42773 -0.48633,1.62304 v 3.39844 z"
               id="path34642" />
            <path
               d="m 207.70503,181.65871 1.02539,0.15234 q 0.0645,0.47461 0.35742,0.69141 0.39258,0.29297 1.07227,0.29297 0.73242,0 1.13086,-0.29297 0.39844,-0.29297 0.53906,-0.82032 0.082,-0.32226 0.0762,-1.35351 -0.6914,0.81445 -1.72265,0.81445 -1.28321,0 -1.98633,-0.92578 -0.70313,-0.92578 -0.70313,-2.2207 0,-0.89063 0.32227,-1.64063 0.32227,-0.75586 0.93164,-1.16601 0.61524,-0.41016 1.44141,-0.41016 1.10156,0 1.8164,0.89063 v -0.75 h 0.97266 v 5.3789 q 0,1.45313 -0.29883,2.05664 -0.29297,0.60938 -0.9375,0.96094 -0.63867,0.35156 -1.57617,0.35156 -1.11328,0 -1.79883,-0.5039 -0.68555,-0.49805 -0.66211,-1.50586 z m 0.87305,-3.73828 q 0,1.2246 0.48633,1.7871 0.48633,0.5625 1.21875,0.5625 0.72656,0 1.21875,-0.55664 0.49218,-0.5625 0.49218,-1.75781 0,-1.14258 -0.50976,-1.72265 -0.50391,-0.58008 -1.21875,-0.58008 -0.70313,0 -1.19531,0.57422 -0.49219,0.56836 -0.49219,1.69336 z"
               id="path34644" />
            <path
               d="m 214.15034,179.28566 1.04297,-0.16406 q 0.0879,0.62695 0.48633,0.96093 0.4043,0.33399 1.125,0.33399 0.72656,0 1.07813,-0.29297 0.35156,-0.29883 0.35156,-0.69727 0,-0.35742 -0.31055,-0.5625 -0.21679,-0.14062 -1.07812,-0.35742 -1.16016,-0.29297 -1.61133,-0.5039 -0.44531,-0.2168 -0.67969,-0.5918 -0.22851,-0.38086 -0.22851,-0.83789 0,-0.41602 0.1875,-0.76758 0.19336,-0.35742 0.52148,-0.5918 0.24609,-0.18164 0.66797,-0.30468 0.42773,-0.12891 0.91406,-0.12891 0.73242,0 1.2832,0.21094 0.55665,0.21094 0.82032,0.57422 0.26367,0.35742 0.36328,0.96093 l -1.03125,0.14063 q -0.0703,-0.48047 -0.41016,-0.75 -0.33398,-0.26953 -0.94922,-0.26953 -0.72656,0 -1.03711,0.24023 -0.31054,0.24024 -0.31054,0.5625 0,0.20508 0.1289,0.36914 0.12891,0.16992 0.4043,0.28125 0.1582,0.0586 0.93164,0.26953 1.11914,0.29883 1.55859,0.49219 0.44532,0.1875 0.69727,0.55078 0.25195,0.36328 0.25195,0.90235 0,0.52734 -0.31054,0.99609 -0.30469,0.46289 -0.88477,0.7207 -0.58008,0.25196 -1.3125,0.25196 -1.21289,0 -1.85156,-0.50391 -0.63281,-0.50391 -0.8086,-1.49414 z"
               id="path34646" />
            <path
               d="m 223.51363,178.03175 q 0,-1.72851 0.96093,-2.56054 0.80274,-0.69141 1.95703,-0.69141 1.28321,0 2.09766,0.84375 0.81445,0.83789 0.81445,2.32031 0,1.20117 -0.36328,1.89258 -0.35742,0.68555 -1.04883,1.06641 -0.68554,0.38086 -1.5,0.38086 -1.30664,0 -2.11523,-0.83789 -0.80273,-0.83789 -0.80273,-2.41407 z m 1.08398,0 q 0,1.19532 0.52148,1.79297 0.52149,0.5918 1.3125,0.5918 0.78516,0 1.30665,-0.59766 0.52148,-0.59765 0.52148,-1.82226 0,-1.1543 -0.52734,-1.7461 -0.52149,-0.59765 -1.30079,-0.59765 -0.79101,0 -1.3125,0.59179 -0.52148,0.5918 -0.52148,1.78711 z"
               id="path34648" />
            <path
               d="m 230.56831,181.14308 v -6.22265 h 0.94922 v 0.94335 q 0.36328,-0.6621 0.66797,-0.87304 0.31055,-0.21094 0.67969,-0.21094 0.5332,0 1.08398,0.33984 l -0.36328,0.97852 q -0.38672,-0.22852 -0.77344,-0.22852 -0.3457,0 -0.62109,0.21094 -0.27539,0.20508 -0.39258,0.57422 -0.17578,0.5625 -0.17578,1.23047 v 3.25781 z"
               id="path34650" />
            <path
               d="m 240.21284,180.19972 0.15235,0.93164 q -0.44531,0.0937 -0.79688,0.0937 -0.57422,0 -0.89062,-0.18164 -0.31641,-0.18164 -0.44531,-0.47461 -0.12891,-0.29883 -0.12891,-1.24804 v -3.58008 h -0.77344 v -0.82031 h 0.77344 v -1.54102 l 1.04883,-0.63281 v 2.17383 h 1.06054 v 0.82031 h -1.06054 v 3.63867 q 0,0.45117 0.0527,0.58008 0.0586,0.1289 0.18164,0.20508 0.12891,0.0762 0.36328,0.0762 0.17579,0 0.46289,-0.041 z"
               id="path34652" />
            <path
               d="m 241.23238,181.14308 v -6.22265 h 0.94921 v 0.94335 q 0.36329,-0.6621 0.66797,-0.87304 0.31055,-0.21094 0.67969,-0.21094 0.5332,0 1.08399,0.33984 l -0.36329,0.97852 q -0.38671,-0.22852 -0.77343,-0.22852 -0.34571,0 -0.6211,0.21094 -0.27539,0.20508 -0.39258,0.57422 -0.17578,0.5625 -0.17578,1.23047 v 3.25781 z"
               id="path34654" />
            <path
               d="m 245.19331,183.53957 -0.11718,-0.99024 q 0.3457,0.0937 0.60351,0.0937 0.35156,0 0.5625,-0.11719 0.21094,-0.11718 0.3457,-0.32812 0.0996,-0.1582 0.32227,-0.78516 0.0293,-0.0879 0.0937,-0.25781 l -2.36133,-6.23437 h 1.13672 l 1.29492,3.60351 q 0.25196,0.68555 0.45117,1.44141 0.18165,-0.72657 0.4336,-1.41797 l 1.33008,-3.62695 h 1.05468 l -2.36718,6.32812 q -0.38086,1.02539 -0.5918,1.41211 -0.28125,0.52148 -0.64453,0.76172 -0.36328,0.24609 -0.86719,0.24609 -0.30469,0 -0.67969,-0.1289 z"
               id="path34656" />
            <path
               d="m 258.63472,180.3755 q -0.58594,0.49805 -1.13086,0.70313 -0.53906,0.20508 -1.16016,0.20508 -1.02539,0 -1.57617,-0.49805 -0.55078,-0.50391 -0.55078,-1.2832 0,-0.45703 0.20508,-0.83203 0.21094,-0.38086 0.54492,-0.60938 0.33984,-0.22852 0.76172,-0.3457 0.31055,-0.082 0.9375,-0.15821 1.27734,-0.15234 1.88086,-0.36328 0.006,-0.21679 0.006,-0.27539 0,-0.64453 -0.29883,-0.9082 -0.4043,-0.35742 -1.20117,-0.35742 -0.74414,0 -1.10156,0.26367 -0.35157,0.25781 -0.52149,0.91992 l -1.03125,-0.14062 q 0.14063,-0.66211 0.46289,-1.06641 0.32227,-0.41016 0.93164,-0.62695 0.60938,-0.22266 1.41211,-0.22266 0.79688,0 1.29492,0.1875 0.49805,0.1875 0.73243,0.47461 0.23437,0.28125 0.32812,0.71484 0.0527,0.26953 0.0527,0.97266 v 1.40625 q 0,1.4707 0.0644,1.86328 0.0703,0.38672 0.26953,0.74414 h -1.10156 q -0.16407,-0.32812 -0.21094,-0.76758 z m -0.0879,-2.35547 q -0.57422,0.23438 -1.72266,0.39844 -0.65039,0.0937 -0.91992,0.21094 -0.26953,0.11719 -0.41601,0.3457 -0.14649,0.22266 -0.14649,0.49805 0,0.42187 0.31641,0.70312 0.32226,0.28125 0.9375,0.28125 0.60937,0 1.08398,-0.26367 0.47461,-0.26953 0.69727,-0.73242 0.16992,-0.35742 0.16992,-1.05469 z"
               id="path34658" />
            <path
               d="m 261.05464,181.65871 1.02539,0.15234 q 0.0645,0.47461 0.35742,0.69141 0.39258,0.29297 1.07227,0.29297 0.73242,0 1.13086,-0.29297 0.39844,-0.29297 0.53906,-0.82032 0.082,-0.32226 0.0762,-1.35351 -0.6914,0.81445 -1.72265,0.81445 -1.28321,0 -1.98633,-0.92578 -0.70313,-0.92578 -0.70313,-2.2207 0,-0.89063 0.32227,-1.64063 0.32227,-0.75586 0.93164,-1.16601 0.61523,-0.41016 1.44141,-0.41016 1.10156,0 1.8164,0.89063 v -0.75 h 0.97266 v 5.3789 q 0,1.45313 -0.29883,2.05664 -0.29297,0.60938 -0.9375,0.96094 -0.63867,0.35156 -1.57617,0.35156 -1.11328,0 -1.79883,-0.5039 -0.68555,-0.49805 -0.66211,-1.50586 z m 0.87305,-3.73828 q 0,1.2246 0.48633,1.7871 0.48632,0.5625 1.21875,0.5625 0.72656,0 1.21875,-0.55664 0.49218,-0.5625 0.49218,-1.75781 0,-1.14258 -0.50976,-1.72265 -0.50391,-0.58008 -1.21875,-0.58008 -0.70313,0 -1.19531,0.57422 -0.49219,0.56836 -0.49219,1.69336 z"
               id="path34660" />
            <path
               d="m 271.98238,180.3755 q -0.58594,0.49805 -1.13086,0.70313 -0.53907,0.20508 -1.16016,0.20508 -1.02539,0 -1.57617,-0.49805 -0.55078,-0.50391 -0.55078,-1.2832 0,-0.45703 0.20508,-0.83203 0.21093,-0.38086 0.54492,-0.60938 0.33984,-0.22852 0.76172,-0.3457 0.31054,-0.082 0.9375,-0.15821 1.27734,-0.15234 1.88086,-0.36328 0.006,-0.21679 0.006,-0.27539 0,-0.64453 -0.29882,-0.9082 -0.4043,-0.35742 -1.20118,-0.35742 -0.74414,0 -1.10156,0.26367 -0.35156,0.25781 -0.52148,0.91992 l -1.03125,-0.14062 q 0.14062,-0.66211 0.46289,-1.06641 0.32226,-0.41016 0.93164,-0.62695 0.60937,-0.22266 1.41211,-0.22266 0.79687,0 1.29492,0.1875 0.49805,0.1875 0.73242,0.47461 0.23438,0.28125 0.32813,0.71484 0.0527,0.26953 0.0527,0.97266 v 1.40625 q 0,1.4707 0.0645,1.86328 0.0703,0.38672 0.26954,0.74414 h -1.10157 q -0.16406,-0.32812 -0.21093,-0.76758 z m -0.0879,-2.35547 q -0.57422,0.23438 -1.72266,0.39844 -0.65039,0.0937 -0.91992,0.21094 -0.26953,0.11719 -0.41602,0.3457 -0.14648,0.22266 -0.14648,0.49805 0,0.42187 0.3164,0.70312 0.32227,0.28125 0.9375,0.28125 0.60938,0 1.08399,-0.26367 0.47461,-0.26953 0.69726,-0.73242 0.16993,-0.35742 0.16993,-1.05469 z"
               id="path34662" />
            <path
               d="m 274.60152,173.76613 v -1.21289 h 1.05468 v 1.21289 z m 0,7.37695 v -6.22265 h 1.05468 v 6.22265 z"
               id="path34664" />
            <path
               d="m 277.26167,181.14308 v -6.22265 h 0.94922 v 0.88476 q 0.68555,-1.02539 1.98047,-1.02539 0.5625,0 1.03125,0.20508 0.47461,0.19922 0.70898,0.52734 0.23438,0.32813 0.32813,0.7793 0.0586,0.29297 0.0586,1.02539 v 3.82617 h -1.05468 v -3.78515 q 0,-0.64454 -0.12305,-0.96094 -0.12305,-0.32227 -0.43945,-0.50977 -0.31055,-0.19336 -0.73243,-0.19336 -0.67382,0 -1.16601,0.42774 -0.48633,0.42773 -0.48633,1.62304 v 3.39844 z"
               id="path34666" />
          </g>
        </g>
      </g>
    </g>
  </g>
</svg>
